<svg xmlns="http://www.w3.org/2000/svg" xmlns:xlink="http://www.w3.org/1999/xlink" xmlns:lucid="lucid" width="1486.69" height="608.5"><g transform="translate(-99 4.5)" lucid:page-tab-id="HWEp-vi-RSFO"><path d="M120 60h360v120H120z" stroke="#8ee895" stroke-width="2" fill="#c3f7c8"/><path d="M120 97.6h360" stroke="#8ee895" stroke-width="2" fill="none"/><use xlink:href="#a" transform="matrix(1,0,0,1,128,68) translate(139.55 14.6)"/><use xlink:href="#b" transform="matrix(1,0,0,1,132,105.6) translate(23.224999999999994 15.500000000000002)"/><use xlink:href="#c" transform="matrix(1,0,0,1,132,105.6) translate(127.07499999999999 15.500000000000002)"/><use xlink:href="#d" transform="matrix(1,0,0,1,132,105.6) translate(215.975 15.500000000000002)"/><use xlink:href="#e" transform="matrix(1,0,0,1,132,105.6) translate(276.825 15.500000000000002)"/><use xlink:href="#f" transform="matrix(1,0,0,1,132,105.6) translate(27.224999999999994 37.1)"/><use xlink:href="#g" transform="matrix(1,0,0,1,132,105.6) translate(111.075 37.1)"/><use xlink:href="#h" transform="matrix(1,0,0,1,132,105.6) translate(145.075 37.1)"/><use xlink:href="#i" transform="matrix(1,0,0,1,132,105.6) translate(227.975 37.1)"/><use xlink:href="#j" transform="matrix(1,0,0,1,132,105.6) translate(125.1 58.7)"/><path d="M120 220h360v141H120z" stroke="#b8f5ed" stroke-width="2" fill="#d7faf5"/><path d="M120 257.6h360" stroke="#b8f5ed" stroke-width="2" fill="none"/><use xlink:href="#k" transform="matrix(1,0,0,1,128,228) translate(150.025 14.6)"/><use xlink:href="#b" transform="matrix(1,0,0,1,132,265.6) translate(24.775000000000006 15.19999999999999)"/><use xlink:href="#c" transform="matrix(1,0,0,1,132,265.6) translate(128.625 15.19999999999999)"/><use xlink:href="#l" transform="matrix(1,0,0,1,132,265.6) translate(217.525 15.19999999999999)"/><use xlink:href="#m" transform="matrix(1,0,0,1,132,265.6) translate(246.475 15.19999999999999)"/><use xlink:href="#n" transform="matrix(1,0,0,1,132,265.6) translate(25.42500000000001 36.79999999999999)"/><use xlink:href="#o" transform="matrix(1,0,0,1,132,265.6) translate(126.32500000000002 36.79999999999999)"/><use xlink:href="#p" transform="matrix(1,0,0,1,132,265.6) translate(215.625 36.79999999999999)"/><use xlink:href="#q" transform="matrix(1,0,0,1,132,265.6) translate(240.625 36.79999999999999)"/><use xlink:href="#r" transform="matrix(1,0,0,1,132,265.6) translate(14.425000000000011 58.39999999999999)"/><use xlink:href="#s" transform="matrix(1,0,0,1,132,265.6) translate(65.92500000000001 58.39999999999999)"/><use xlink:href="#t" transform="matrix(1,0,0,1,132,265.6) translate(80.92500000000001 58.39999999999999)"/><use xlink:href="#p" transform="matrix(1,0,0,1,132,265.6) translate(126.775 58.39999999999999)"/><use xlink:href="#c" transform="matrix(1,0,0,1,132,265.6) translate(151.775 58.39999999999999)"/><use xlink:href="#u" transform="matrix(1,0,0,1,132,265.6) translate(240.675 58.39999999999999)"/><use xlink:href="#v" transform="matrix(1,0,0,1,132,265.6) translate(279.675 58.39999999999999)"/><use xlink:href="#w" transform="matrix(1,0,0,1,132,265.6) translate(104.1 80)"/><use xlink:href="#x" transform="matrix(1,0,0,1,132,265.6) translate(168 80)"/><path d="M120 401h360v162H120z" stroke="#b5d6ff" stroke-width="2" fill="#cfe4ff"/><path d="M120 438.6h360" stroke="#b5d6ff" stroke-width="2" fill="none"/><use xlink:href="#y" transform="matrix(1,0,0,1,128,409) translate(130.55 14.6)"/><use xlink:href="#z" transform="matrix(1,0,0,1,132,446.6) translate(32.27499999999998 14.899999999999993)"/><use xlink:href="#A" transform="matrix(1,0,0,1,132,446.6) translate(127.02499999999998 14.899999999999993)"/><use xlink:href="#B" transform="matrix(1,0,0,1,132,446.6) translate(192.92499999999998 14.899999999999993)"/><use xlink:href="#C" transform="matrix(1,0,0,1,132,446.6) translate(233.875 14.899999999999993)"/><use xlink:href="#D" transform="matrix(1,0,0,1,132,446.6) translate(280.775 14.899999999999993)"/><use xlink:href="#E" transform="matrix(1,0,0,1,132,446.6) translate(8.150000000000006 36.49999999999999)"/><use xlink:href="#u" transform="matrix(1,0,0,1,132,446.6) translate(83.10000000000001 36.49999999999999)"/><use xlink:href="#F" transform="matrix(1,0,0,1,132,446.6) translate(122.10000000000001 36.49999999999999)"/><use xlink:href="#G" transform="matrix(1,0,0,1,132,446.6) translate(191.00000000000003 36.49999999999999)"/><use xlink:href="#H" transform="matrix(1,0,0,1,132,446.6) translate(286.9 36.49999999999999)"/><use xlink:href="#I" transform="matrix(1,0,0,1,132,446.6) translate(18.099999999999994 58.099999999999994)"/><use xlink:href="#p" transform="matrix(1,0,0,1,132,446.6) translate(64.05 58.099999999999994)"/><use xlink:href="#J" transform="matrix(1,0,0,1,132,446.6) translate(89.05 58.099999999999994)"/><use xlink:href="#g" transform="matrix(1,0,0,1,132,446.6) translate(182.95000000000002 58.099999999999994)"/><use xlink:href="#K" transform="matrix(1,0,0,1,132,446.6) translate(216.95000000000002 58.099999999999994)"/><use xlink:href="#L" transform="matrix(1,0,0,1,132,446.6) translate(297.9 58.099999999999994)"/><use xlink:href="#M" transform="matrix(1,0,0,1,132,446.6) translate(8.650000000000006 79.70000000000002)"/><use xlink:href="#N" transform="matrix(1,0,0,1,132,446.6) translate(74.60000000000001 79.70000000000002)"/><use xlink:href="#O" transform="matrix(1,0,0,1,132,446.6) translate(124.55000000000001 79.70000000000002)"/><use xlink:href="#P" transform="matrix(1,0,0,1,132,446.6) translate(153.55 79.70000000000002)"/><use xlink:href="#Q" transform="matrix(1,0,0,1,132,446.6) translate(231.45000000000002 79.70000000000002)"/><use xlink:href="#H" transform="matrix(1,0,0,1,132,446.6) translate(286.4 79.70000000000002)"/><use xlink:href="#R" transform="matrix(1,0,0,1,132,446.6) translate(114.55 101.30000000000001)"/><use xlink:href="#S" transform="matrix(1,0,0,1,132,446.6) translate(155.5 101.30000000000001)"/><use xlink:href="#T" transform="matrix(1,0,0,1,132,446.6) translate(175.5 101.30000000000001)"/><path d="M540 432.5h360v99H540z" stroke="#eec4ff" stroke-width="2" fill="#f4d9ff"/><path d="M540 470.1h360" stroke="#eec4ff" stroke-width="2" fill="none"/><use xlink:href="#U" transform="matrix(1,0,0,1,548,440.5) translate(141.55 14.6)"/><use xlink:href="#V" transform="matrix(1,0,0,1,552,478.1) translate(10.449999999999989 26.6)"/><use xlink:href="#W" transform="matrix(1,0,0,1,552,478.1) translate(136.3 26.6)"/><use xlink:href="#c" transform="matrix(1,0,0,1,552,478.1) translate(231.65 26.6)"/><use xlink:href="#X" transform="matrix(1,0,0,1,552,478.1) translate(320.55 26.6)"/><path d="M540 231h360v119H540z" stroke="#febed9" stroke-width="2" fill="#fff0fb"/><path d="M540 268.6h360" stroke="#febed9" stroke-width="2" fill="none"/><use xlink:href="#Y" transform="matrix(1,0,0,1,548,239) translate(132.55 14.6)"/><use xlink:href="#Z" transform="matrix(1,0,0,1,552,276.6) translate(12.325000000000017 15.000000000000002)"/><use xlink:href="#aa" transform="matrix(1,0,0,1,552,276.6) translate(59.22500000000002 15.000000000000002)"/><use xlink:href="#ab" transform="matrix(1,0,0,1,552,276.6) translate(207.875 15.000000000000002)"/><use xlink:href="#e" transform="matrix(1,0,0,1,552,276.6) translate(287.725 15.000000000000002)"/><use xlink:href="#A" transform="matrix(1,0,0,1,552,276.6) translate(1.2749999999999773 36.6)"/><use xlink:href="#l" transform="matrix(1,0,0,1,552,276.6) translate(67.17499999999998 36.6)"/><use xlink:href="#ac" transform="matrix(1,0,0,1,552,276.6) translate(96.12499999999999 36.6)"/><use xlink:href="#ad" transform="matrix(1,0,0,1,552,276.6) translate(151.975 36.6)"/><use xlink:href="#ae" transform="matrix(1,0,0,1,552,276.6) translate(170.92499999999998 36.6)"/><use xlink:href="#af" transform="matrix(1,0,0,1,552,276.6) translate(296.725 36.6)"/><use xlink:href="#ag" transform="matrix(1,0,0,1,552,276.6) translate(31.650000000000006 58.2)"/><use xlink:href="#ah" transform="matrix(1,0,0,1,552,276.6) translate(59.60000000000001 58.2)"/><use xlink:href="#p" transform="matrix(1,0,0,1,552,276.6) translate(112.60000000000001 58.2)"/><use xlink:href="#ai" transform="matrix(1,0,0,1,552,276.6) translate(137.60000000000002 58.2)"/><use xlink:href="#aj" transform="matrix(1,0,0,1,552,276.6) translate(216.6 58.2)"/><path d="M540 62h360v118H540z" stroke="#ff8f8f" stroke-width="2" fill="#ffd9d9"/><path d="M540 99.6h360" stroke="#ff8f8f" stroke-width="2" fill="none"/><use xlink:href="#ak" transform="matrix(1,0,0,1,548,70) translate(123.025 14.6)"/><use xlink:href="#al" transform="matrix(1,0,0,1,552,107.6) translate(5.050000000000011 25.299999999999997)"/><use xlink:href="#p" transform="matrix(1,0,0,1,552,107.6) translate(80.00000000000001 25.299999999999997)"/><use xlink:href="#am" transform="matrix(1,0,0,1,552,107.6) translate(105.00000000000001 25.299999999999997)"/><use xlink:href="#p" transform="matrix(1,0,0,1,552,107.6) translate(167.95000000000002 25.299999999999997)"/><use xlink:href="#an" transform="matrix(1,0,0,1,552,107.6) translate(192.95000000000002 25.299999999999997)"/><use xlink:href="#p" transform="matrix(1,0,0,1,552,107.6) translate(236.95000000000002 25.299999999999997)"/><use xlink:href="#ao" transform="matrix(1,0,0,1,552,107.6) translate(261.95 25.299999999999997)"/><use xlink:href="#ap" transform="matrix(1,0,0,1,552,107.6) translate(37.75 46.9)"/><use xlink:href="#S" transform="matrix(1,0,0,1,552,107.6) translate(139.5 46.9)"/><use xlink:href="#aq" transform="matrix(1,0,0,1,552,107.6) translate(159.5 46.9)"/><use xlink:href="#ar" transform="matrix(1,0,0,1,552,107.6) translate(203.45 46.9)"/><path d="M300 181.5v21.12" stroke="#333" fill="none"/><path d="M300.48 181.5h-.96v-.5h.96z" stroke="#333" stroke-width=".05" fill="#333"/><path d="M300 217.38l-4.63-14.26h9.26z" stroke="#333" fill="#333"/><path d="M481.5 482h41.12" stroke="#333" fill="none"/><path d="M481.5 482.48h-.5v-.96h.5z" stroke="#333" stroke-width=".05" fill="#333"/><path d="M537.38 482l-14.26 4.63v-9.26z" stroke="#333" fill="#333"/><path d="M300 362.5v21.12" stroke="#333" fill="none"/><path d="M300.48 362.5h-.96v-.5h.96z" stroke="#333" stroke-width=".05" fill="#333"/><path d="M300 398.38l-4.63-14.26h9.26z" stroke="#333" fill="#333"/><path d="M720 431v-63.62" stroke="#333" fill="none"/><path d="M720.48 431.5h-.96v-.5h.96z" stroke="#333" stroke-width=".05" fill="#333"/><path d="M720 352.62l4.63 14.26h-9.26z" stroke="#333" fill="#333"/><path d="M720 229.5v-32.12" stroke="#333" fill="none"/><path d="M720.48 230h-.96v-.5h.96z" stroke="#333" stroke-width=".05" fill="#333"/><path d="M720 182.62l4.63 14.26h-9.26z" stroke="#333" fill="#333"/><path d="M860 22h200v38H860z" stroke="#000" stroke-opacity="0" stroke-width="2" fill="#fff" fill-opacity="0"/><use xlink:href="#as" transform="matrix(1,0,0,1,865,27) translate(55.625 17.6)"/><path d="M1160 16.5h240V60h-240z" stroke="#000" stroke-opacity="0" stroke-width="2" fill="#fff" fill-opacity="0"/><use xlink:href="#at" transform="matrix(1,0,0,1,1165,21.5) translate(83.55 20.6)"/><path d="M1060 60h100v60h-100z" stroke="#000" stroke-opacity="0" stroke-width="2" fill="#fff" fill-opacity="0"/><use xlink:href="#au" transform="matrix(1,0,0,1,1065,65) translate(1.5499999999999972 28.6)"/><path d="M1280 60h264.7v60H1280z" stroke="#000" stroke-opacity="0" stroke-width="2" fill="#fff" fill-opacity="0"/><use xlink:href="#av" transform="matrix(1,0,0,1,1285,65) translate(3.6999999999999886 28.6)"/><use xlink:href="#aw" transform="matrix(1,0,0,1,1285,65) translate(103.45 28.6)"/><use xlink:href="#ax" transform="matrix(1,0,0,1,1285,65) translate(146.45 28.6)"/><path d="M960 61.5v217" stroke="#333" stroke-width="3" fill="none"/><path d="M961.48 61.54h-2.96V60h2.96z" stroke="#333" stroke-width=".05" fill="#333"/><path d="M960 278.46V280M1280 61.5v217" stroke="#333" stroke-width="3" fill="none"/><path d="M1281.47 61.54h-2.94V60h2.94z" stroke="#333" stroke-width=".05" fill="#333"/><path d="M1280 278.46V280" stroke="#333" stroke-width="3" fill="none"/><path d="M960.5 90h99M960.5 90h-.5" stroke="#54c45e" fill="none"/><path d="M1060 90.47h-.5v-.94h.5z" stroke="#54c45e" stroke-width=".05" fill="#54c45e"/><path d="M1160.5 90h103.12" stroke="#54c45e" fill="none"/><path d="M1160.5 90.47h-.5v-.94h.5z" stroke="#54c45e" stroke-width=".05" fill="#54c45e"/><path d="M1278.38 90l-14.26 4.64v-9.28z" stroke="#54c45e" fill="#54c45e"/><path d="M1027.66 153h164.68v38h-164.68z" stroke="#000" stroke-opacity="0" stroke-width="2" fill="#fff" fill-opacity="0"/><g><use xlink:href="#ay" transform="matrix(1,0,0,1,1032.655837386484,158) translate(8.049999999999997 17.6)"/><use xlink:href="#az" transform="matrix(1,0,0,1,1032.655837386484,158) translate(61 17.6)"/><use xlink:href="#aA" transform="matrix(1,0,0,1,1032.655837386484,158) translate(86 17.6)"/></g><path d="M1192.84 172h86.66" stroke="#fe7070" fill="none"/><path d="M1192.86 172.47h-.52v-.94h.52zM1280 172.47h-.5v-.94h.5z" stroke="#fe7070" stroke-width=".05" fill="#fe7070"/><path d="M1027.16 172h-50.78" stroke="#fe7070" fill="none"/><path d="M1027.66 172.47h-.52v-.94h.52z" stroke="#fe7070" stroke-width=".05" fill="#fe7070"/><path d="M961.62 172l14.26-4.63v9.26z" stroke="#fe7070" fill="#fe7070"/><path d="M1280 151.44h284.7v41.12H1280z" stroke="#000" stroke-opacity="0" stroke-width="2" fill="#fff" fill-opacity="0"/><g><use xlink:href="#aB" transform="matrix(1,0,0,1,1285,156.4414916316979) translate(2.9749999999999943 19.6)"/><use xlink:href="#aC" transform="matrix(1,0,0,1,1285,156.4414916316979) translate(77.82499999999999 19.6)"/><use xlink:href="#aD" transform="matrix(1,0,0,1,1285,156.4414916316979) translate(102.82499999999999 19.6)"/><use xlink:href="#aw" transform="matrix(1,0,0,1,1285,156.4414916316979) translate(151.825 19.6)"/><use xlink:href="#aE" transform="matrix(1,0,0,1,1285,156.4414916316979) translate(194.825 19.6)"/></g><path d="M1027.66 224h164.68v38h-164.68z" stroke="#000" stroke-opacity="0" stroke-width="2" fill="#fff" fill-opacity="0"/><g><use xlink:href="#aF" transform="matrix(1,0,0,1,1032.655837386484,229) translate(9.299999999999997 17.6)"/><use xlink:href="#aG" transform="matrix(1,0,0,1,1032.655837386484,229) translate(82.25 17.6)"/><use xlink:href="#aH" transform="matrix(1,0,0,1,1032.655837386484,229) translate(97.75 17.6)"/></g><path d="M960.5 240h66.66M960.5 240h-.5" stroke="#54c45e" fill="none"/><path d="M1027.66 240.47h-.52v-.94h.52z" stroke="#54c45e" stroke-width=".05" fill="#54c45e"/><path d="M1192.84 240h43.3a.03.03 0 0 1 .03.03.03.03 0 0 0 .03.03h27.42" stroke="#54c45e" fill="none"/><path d="M1192.86 240.47h-.52v-.94h.52z" stroke="#54c45e" stroke-width=".05" fill="#54c45e"/><path d="M1278.38 240.06l-14.26 4.63v-9.28z" stroke="#54c45e" fill="#54c45e"/><path d="M1280 220h224.7v40.12H1280z" stroke="#000" stroke-opacity="0" stroke-width="2" fill="#fff" fill-opacity="0"/><g><use xlink:href="#aI" transform="matrix(1,0,0,1,1285,225) translate(3.125 19.1)"/><use xlink:href="#aJ" transform="matrix(1,0,0,1,1285,225) translate(34.075 19.1)"/><use xlink:href="#aK" transform="matrix(1,0,0,1,1285,225) translate(100.025 19.1)"/><use xlink:href="#aL" transform="matrix(1,0,0,1,1285,225) translate(129.025 19.1)"/></g><path d="M840 310h240v30H840z" stroke="#000" stroke-opacity="0" stroke-width="2" fill="#fff" fill-opacity="0"/><g><use xlink:href="#at" transform="matrix(1,0,0,1,845,315) translate(83.55 14.4)"/></g><path d="M1280 310h240v30h-240z" stroke="#000" stroke-opacity="0" stroke-width="2" fill="#fff" fill-opacity="0"/><g><use xlink:href="#aM" transform="matrix(1,0,0,1,1285,315) translate(63.325 14.4)"/><use xlink:href="#aN" transform="matrix(1,0,0,1,1285,315) translate(105.725 14.4)"/></g><path d="M1074.67 358H1280v30h-205.33z" stroke="#000" stroke-opacity="0" stroke-width="2" fill="#fff" fill-opacity="0"/><g><use xlink:href="#aO" transform="matrix(1,0,0,1,1079.6666666666667,363) translate(8.125 14.4)"/><use xlink:href="#aP" transform="matrix(1,0,0,1,1079.6666666666667,363) translate(13.125 14.4)"/><use xlink:href="#az" transform="matrix(1,0,0,1,1079.6666666666667,363) translate(96.025 14.4)"/><use xlink:href="#aQ" transform="matrix(1,0,0,1,1079.6666666666667,363) translate(121.025 14.4)"/></g><path d="M1092.67 406H1262v30h-169.33z" stroke="#000" stroke-opacity="0" stroke-width="2" fill="#fff" fill-opacity="0"/><g><use xlink:href="#aR" transform="matrix(1,0,0,1,1097.6666666666667,411) translate(6.625 14.4)"/><use xlink:href="#az" transform="matrix(1,0,0,1,1097.6666666666667,411) translate(52.525000000000006 14.4)"/><use xlink:href="#aS" transform="matrix(1,0,0,1,1097.6666666666667,411) translate(77.525 14.4)"/></g><path d="M1090 454h174.67v27H1090z" stroke="#000" stroke-opacity="0" stroke-width="2" fill="#fff" fill-opacity="0"/><g><use xlink:href="#aT" transform="matrix(1,0,0,1,1095,459) translate(8.049999999999997 14.4)"/><use xlink:href="#aU" transform="matrix(1,0,0,1,1095,459) translate(85 14.4)"/><use xlink:href="#aV" transform="matrix(1,0,0,1,1095,459) translate(119 14.4)"/></g><path d="M1134.67 499H1220v30h-85.33z" stroke="#000" stroke-opacity="0" stroke-width="2" fill="#fff" fill-opacity="0"/><g><use xlink:href="#aW" transform="matrix(1,0,0,1,1139.6666666666667,504) translate(2.5999999999999943 14.4)"/></g><path d="M1080 547h205.33v30H1080z" stroke="#000" stroke-opacity="0" stroke-width="2" fill="#fff" fill-opacity="0"/><g><use xlink:href="#aX" transform="matrix(1,0,0,1,1085,552) translate(6.650000000000006 14.4)"/><use xlink:href="#aC" transform="matrix(1,0,0,1,1085,552) translate(97.50000000000001 14.4)"/><use xlink:href="#aQ" transform="matrix(1,0,0,1,1085,552) translate(122.50000000000001 14.4)"/></g><path d="M1400 341v258" stroke="#333" stroke-width="2" fill="none"/><path d="M1400.97 341.03h-1.94V340h1.94z" stroke="#333" stroke-width=".05" fill="#333"/><path d="M1400 598.97V600" stroke="#333" stroke-width="2" fill="none"/><path d="M960 341.5v257" stroke="#333" stroke-width="3" fill="none"/><path d="M961.48 341.54h-2.96V340h2.96z" stroke="#333" stroke-width=".05" fill="#333"/><path d="M960 598.46V600" stroke="#333" stroke-width="3" fill="none"/><path d="M1280.5 373h103.12" stroke="#635dff" fill="none"/><path d="M1280.5 373.48h-.5v-.96h.5z" stroke="#635dff" stroke-width=".05" fill="#635dff"/><path d="M1398.38 373l-14.26 4.63v-9.26z" stroke="#635dff" fill="#635dff"/><path d="M1074.17 373H960.5" stroke="#635dff" fill="none"/><path d="M1074.67 373.48h-.52v-.96h.52z" stroke="#635dff" stroke-width=".05" fill="#635dff"/><path d="M960.5 373h-.5" stroke="#635dff" fill="none"/><path d="M1399.5 420h-137M1399.5 420h.5" stroke="#fe7070" fill="none"/><path d="M1262.5 420.48h-.5v-.96h.5z" stroke="#fe7070" stroke-width=".05" fill="#fe7070"/><path d="M1089.5 467.5h-129" stroke="#635dff" fill="none"/><path d="M1090 467.98h-.5v-.96h.5z" stroke="#635dff" stroke-width=".05" fill="#635dff"/><path d="M960.5 467.5h-.5" stroke="#635dff" fill="none"/><path d="M1399.5 514h-179M1399.5 514h.5" stroke="#fe7070" fill="none"/><path d="M1220.5 514.48h-.5v-.96h.5z" stroke="#fe7070" stroke-width=".05" fill="#fe7070"/><path d="M1079.5 562h-119" stroke="#635dff" fill="none"/><path d="M1080 562.48h-.5v-.96h.5z" stroke="#635dff" stroke-width=".05" fill="#635dff"/><path d="M960.5 562h-.5" stroke="#635dff" fill="none"/><path d="M1092.17 421H976.4" stroke="#fe7070" fill="none"/><path d="M1092.67 421.48h-.52v-.96h.52z" stroke="#fe7070" stroke-width=".05" fill="#fe7070"/><path d="M961.62 421l14.26-4.63v9.26z" stroke="#fe7070" fill="#fe7070"/><path d="M1265.17 467.5h118.45" stroke="#635dff" fill="none"/><path d="M1265.18 467.98h-.5v-.96h.5z" stroke="#635dff" stroke-width=".05" fill="#635dff"/><path d="M1398.38 467.5l-14.26 4.63v-9.26z" stroke="#635dff" fill="#635dff"/><path d="M1134.17 514h-157.8" stroke="#fe7070" fill="none"/><path d="M1134.67 514.48h-.52v-.96h.52z" stroke="#fe7070" stroke-width=".05" fill="#fe7070"/><path d="M961.62 514l14.26-4.63v9.26z" stroke="#fe7070" fill="#fe7070"/><path d="M1285.83 562h97.8" stroke="#635dff" fill="none"/><path d="M1285.85 562.48h-.52v-.96h.52z" stroke="#635dff" stroke-width=".05" fill="#635dff"/><path d="M1398.38 562l-14.26 4.63v-9.26z" stroke="#635dff" fill="#635dff"/><defs><path fill="#282c33" d="M233-177c-1 41-23 64-60 70L243 0h-38l-65-103H63V0H30v-248c88 3 205-21 203 71zM63-129c60-2 137 13 137-47 0-61-80-42-137-45v92" id="aY"/><path fill="#282c33" d="M100-194c63 0 86 42 84 106H49c0 40 14 67 53 68 26 1 43-12 49-29l28 8c-11 28-37 45-77 45C44 4 14-33 15-96c1-61 26-98 85-98zm52 81c6-60-76-77-97-28-3 7-6 17-6 28h103" id="aZ"/><path fill="#282c33" d="M141-36C126-15 110 5 73 4 37 3 15-17 15-53c-1-64 63-63 125-63 3-35-9-54-41-54-24 1-41 7-42 31l-33-3c5-37 33-52 76-52 45 0 72 20 72 64v82c-1 20 7 32 28 27v20c-31 9-61-2-59-35zM48-53c0 20 12 33 32 33 41-3 63-29 60-74-43 2-92-5-92 41" id="ba"/><path fill="#282c33" d="M96-169c-40 0-48 33-48 73s9 75 48 75c24 0 41-14 43-38l32 2c-6 37-31 61-74 61-59 0-76-41-82-99-10-93 101-131 147-64 4 7 5 14 7 22l-32 3c-4-21-16-35-41-35" id="bb"/><path fill="#282c33" d="M59-47c-2 24 18 29 38 22v24C64 9 27 4 27-40v-127H5v-23h24l9-43h21v43h35v23H59v120" id="bc"/><path fill="#282c33" d="M33 0v-38h34V0H33" id="bd"/><path fill="#282c33" d="M24-231v-30h32v30H24zM-9 49c24 4 33-6 33-30v-209h32V24c2 40-23 58-65 49V49" id="be"/><path fill="#282c33" d="M135-143c-3-34-86-38-87 0 15 53 115 12 119 90S17 21 10-45l28-5c4 36 97 45 98 0-10-56-113-15-118-90-4-57 82-63 122-42 12 7 21 19 24 35" id="bf"/><g id="a"><use transform="matrix(0.05,0,0,0.05,0,0)" xlink:href="#aY"/><use transform="matrix(0.05,0,0,0.05,12.950000000000001,0)" xlink:href="#aZ"/><use transform="matrix(0.05,0,0,0.05,22.950000000000003,0)" xlink:href="#ba"/><use transform="matrix(0.05,0,0,0.05,32.95,0)" xlink:href="#bb"/><use transform="matrix(0.05,0,0,0.05,41.95,0)" xlink:href="#bc"/><use transform="matrix(0.05,0,0,0.05,46.95,0)" xlink:href="#bd"/><use transform="matrix(0.05,0,0,0.05,51.95,0)" xlink:href="#be"/><use transform="matrix(0.05,0,0,0.05,55.900000000000006,0)" xlink:href="#bf"/></g><path fill="#282c33" d="M160-131c35 5 61 23 61 61C221 17 115-2 30 0v-248c76 3 177-17 177 60 0 33-19 50-47 57zm-97-11c50-1 110 9 110-42 0-47-63-36-110-37v79zm0 115c55-2 124 14 124-45 0-56-70-42-124-44v89" id="bg"/><path fill="#282c33" d="M24-231v-30h32v30H24zM24 0v-190h32V0H24" id="bh"/><path fill="#282c33" d="M115-194c53 0 69 39 70 98 0 66-23 100-70 100C84 3 66-7 56-30L54 0H23l1-261h32v101c10-23 28-34 59-34zm-8 174c40 0 45-34 45-75 0-40-5-75-45-74-42 0-51 32-51 76 0 43 10 73 51 73" id="bi"/><path fill="#282c33" d="M24 0v-261h32V0H24" id="bj"/><path fill="#282c33" d="M100-194c62-1 85 37 85 99 1 63-27 99-86 99S16-35 15-95c0-66 28-99 85-99zM99-20c44 1 53-31 53-75 0-43-8-75-51-75s-53 32-53 75 10 74 51 75" id="bk"/><path fill="#282c33" d="M106-169C34-169 62-67 57 0H25v-261h32l-1 103c12-21 28-36 61-36 89 0 53 116 60 194h-32v-121c2-32-8-49-39-48" id="bl"/><path fill="#282c33" d="M100-194c63 0 86 42 84 106H49c0 40 14 67 53 68 26 1 43-12 49-29l28 8c-11 28-37 45-77 45C44 4 14-33 15-96c1-61 26-98 85-98zm52 81c6-60-76-77-97-28-3 7-6 17-6 28h103zm-36-98l-58-49v-5h36c12 19 30 32 38 54h-16" id="bm"/><path fill="#282c33" d="M145-31C134-9 116 4 85 4 32 4 16-35 15-94c0-59 17-99 70-100 32-1 48 14 60 33 0-11-1-24 2-32h30l-1 268h-32zM93-21c41 0 51-33 51-76s-8-73-50-73c-40 0-46 35-46 75s5 74 45 74" id="bn"/><path fill="#282c33" d="M84 4C-5 8 30-112 23-190h32v120c0 31 7 50 39 49 72-2 45-101 50-169h31l1 190h-30c-1-10 1-25-2-33-11 22-28 36-60 37" id="bo"/><g id="b"><use transform="matrix(0.05,0,0,0.05,0,0)" xlink:href="#bg"/><use transform="matrix(0.05,0,0,0.05,12,0)" xlink:href="#bh"/><use transform="matrix(0.05,0,0,0.05,15.949999999999998,0)" xlink:href="#bi"/><use transform="matrix(0.05,0,0,0.05,25.950000000000003,0)" xlink:href="#bj"/><use transform="matrix(0.05,0,0,0.05,29.899999999999995,0)" xlink:href="#bh"/><use transform="matrix(0.05,0,0,0.05,33.85,0)" xlink:href="#bk"/><use transform="matrix(0.05,0,0,0.05,43.85,0)" xlink:href="#bc"/><use transform="matrix(0.05,0,0,0.05,48.85,0)" xlink:href="#bl"/><use transform="matrix(0.05,0,0,0.05,58.85,0)" xlink:href="#bm"/><use transform="matrix(0.05,0,0,0.05,68.85,0)" xlink:href="#bn"/><use transform="matrix(0.05,0,0,0.05,78.85,0)" xlink:href="#bo"/><use transform="matrix(0.05,0,0,0.05,88.85,0)" xlink:href="#aZ"/></g><path fill="#282c33" d="M153-248C145-148 188 4 80 4 36 3 13-21 6-62l32-5c4 25 16 42 43 43 27 0 39-20 39-49v-147H72v-28h81" id="bp"/><path fill="#282c33" d="M108 0H70L1-190h34L89-25l56-165h34" id="bq"/><path fill="#282c33" d="M185-189c-5-48-123-54-124 2 14 75 158 14 163 119 3 78-121 87-175 55-17-10-28-26-33-46l33-7c5 56 141 63 141-1 0-78-155-14-162-118-5-82 145-84 179-34 5 7 8 16 11 25" id="br"/><path fill="#282c33" d="M114-163C36-179 61-72 57 0H25l-1-190h30c1 12-1 29 2 39 6-27 23-49 58-41v29" id="bs"/><path fill="#282c33" d="M115-194c55 1 70 41 70 98S169 2 115 4C84 4 66-9 55-30l1 105H24l-1-265h31l2 30c10-21 28-34 59-34zm-8 174c40 0 45-34 45-75s-6-73-45-74c-42 0-51 32-51 76 0 43 10 73 51 73" id="bt"/><g id="c"><use transform="matrix(0.05,0,0,0.05,0,0)" xlink:href="#bp"/><use transform="matrix(0.05,0,0,0.05,9,0)" xlink:href="#ba"/><use transform="matrix(0.05,0,0,0.05,19,0)" xlink:href="#bq"/><use transform="matrix(0.05,0,0,0.05,28,0)" xlink:href="#ba"/><use transform="matrix(0.05,0,0,0.05,38,0)" xlink:href="#br"/><use transform="matrix(0.05,0,0,0.05,50,0)" xlink:href="#bb"/><use transform="matrix(0.05,0,0,0.05,59,0)" xlink:href="#bs"/><use transform="matrix(0.05,0,0,0.05,64.95,0)" xlink:href="#bh"/><use transform="matrix(0.05,0,0,0.05,68.9,0)" xlink:href="#bt"/><use transform="matrix(0.05,0,0,0.05,78.9,0)" xlink:href="#bc"/></g><path fill="#282c33" d="M100-194c63 0 86 42 84 106H49c0 40 14 67 53 68 26 1 43-12 49-29l28 8c-11 28-37 45-77 45C44 4 14-33 15-96c1-61 26-98 85-98zm52 81c6-60-76-77-97-28-3 7-6 17-6 28h103zm-74-98c8-23 27-35 38-54h36v5l-58 49H78" id="bu"/><g id="d"><use transform="matrix(0.05,0,0,0.05,0,0)" xlink:href="#bo"/><use transform="matrix(0.05,0,0,0.05,10,0)" xlink:href="#bc"/><use transform="matrix(0.05,0,0,0.05,15,0)" xlink:href="#bh"/><use transform="matrix(0.05,0,0,0.05,18.95,0)" xlink:href="#bj"/><use transform="matrix(0.05,0,0,0.05,22.9,0)" xlink:href="#bh"/><use transform="matrix(0.05,0,0,0.05,26.849999999999994,0)" xlink:href="#bf"/><use transform="matrix(0.05,0,0,0.05,35.849999999999994,0)" xlink:href="#bu"/><use transform="matrix(0.05,0,0,0.05,45.849999999999994,0)" xlink:href="#aZ"/></g><g id="e"><use transform="matrix(0.05,0,0,0.05,0,0)" xlink:href="#bt"/><use transform="matrix(0.05,0,0,0.05,10,0)" xlink:href="#bk"/><use transform="matrix(0.05,0,0,0.05,20,0)" xlink:href="#bo"/><use transform="matrix(0.05,0,0,0.05,30,0)" xlink:href="#bs"/></g><path fill="#282c33" d="M117-194c89-4 53 116 60 194h-32v-121c0-31-8-49-39-48C34-167 62-67 57 0H25l-1-190h30c1 10-1 24 2 32 11-22 29-35 61-36" id="bv"/><g id="f"><use transform="matrix(0.05,0,0,0.05,0,0)" xlink:href="#bb"/><use transform="matrix(0.05,0,0,0.05,9,0)" xlink:href="#bk"/><use transform="matrix(0.05,0,0,0.05,19,0)" xlink:href="#bv"/><use transform="matrix(0.05,0,0,0.05,29,0)" xlink:href="#bf"/><use transform="matrix(0.05,0,0,0.05,38,0)" xlink:href="#bc"/><use transform="matrix(0.05,0,0,0.05,43,0)" xlink:href="#bs"/><use transform="matrix(0.05,0,0,0.05,48.95,0)" xlink:href="#bo"/><use transform="matrix(0.05,0,0,0.05,58.95,0)" xlink:href="#bh"/><use transform="matrix(0.05,0,0,0.05,62.900000000000006,0)" xlink:href="#bs"/><use transform="matrix(0.05,0,0,0.05,68.85000000000001,0)" xlink:href="#aZ"/></g><path fill="#282c33" d="M85-194c31 0 48 13 60 33l-1-100h32l1 261h-30c-2-10 0-23-3-31C134-8 116 4 85 4 32 4 16-35 15-94c0-66 23-100 70-100zm9 24c-40 0-46 34-46 75 0 40 6 74 45 74 42 0 51-32 51-76 0-42-9-74-50-73" id="bw"/><g id="g"><use transform="matrix(0.05,0,0,0.05,0,0)" xlink:href="#bw"/><use transform="matrix(0.05,0,0,0.05,10,0)" xlink:href="#aZ"/><use transform="matrix(0.05,0,0,0.05,20,0)" xlink:href="#bf"/></g><path fill="#282c33" d="M101-234c-31-9-42 10-38 44h38v23H63V0H32v-167H5v-23h27c-7-52 17-82 69-68v24" id="bx"/><g id="h"><use transform="matrix(0.05,0,0,0.05,0,0)" xlink:href="#bh"/><use transform="matrix(0.05,0,0,0.05,3.95,0)" xlink:href="#bv"/><use transform="matrix(0.05,0,0,0.05,13.949999999999998,0)" xlink:href="#bc"/><use transform="matrix(0.05,0,0,0.05,18.95,0)" xlink:href="#aZ"/><use transform="matrix(0.05,0,0,0.05,28.950000000000003,0)" xlink:href="#bs"/><use transform="matrix(0.05,0,0,0.05,34.9,0)" xlink:href="#bx"/><use transform="matrix(0.05,0,0,0.05,39.9,0)" xlink:href="#ba"/><use transform="matrix(0.05,0,0,0.05,49.9,0)" xlink:href="#bb"/><use transform="matrix(0.05,0,0,0.05,58.900000000000006,0)" xlink:href="#aZ"/><use transform="matrix(0.05,0,0,0.05,68.9,0)" xlink:href="#bf"/></g><g id="i"><use transform="matrix(0.05,0,0,0.05,0,0)" xlink:href="#bo"/><use transform="matrix(0.05,0,0,0.05,10,0)" xlink:href="#bc"/><use transform="matrix(0.05,0,0,0.05,15,0)" xlink:href="#bh"/><use transform="matrix(0.05,0,0,0.05,18.95,0)" xlink:href="#bj"/><use transform="matrix(0.05,0,0,0.05,22.9,0)" xlink:href="#bh"/><use transform="matrix(0.05,0,0,0.05,26.849999999999994,0)" xlink:href="#bf"/><use transform="matrix(0.05,0,0,0.05,35.849999999999994,0)" xlink:href="#ba"/><use transform="matrix(0.05,0,0,0.05,45.849999999999994,0)" xlink:href="#bc"/><use transform="matrix(0.05,0,0,0.05,50.849999999999994,0)" xlink:href="#aZ"/><use transform="matrix(0.05,0,0,0.05,60.849999999999994,0)" xlink:href="#bo"/><use transform="matrix(0.05,0,0,0.05,70.85,0)" xlink:href="#bs"/><use transform="matrix(0.05,0,0,0.05,75.8,0)" xlink:href="#bd"/></g><path fill="#282c33" d="M87 75C49 33 22-17 22-94c0-76 28-126 65-167h31c-38 41-64 92-64 168S80 34 118 75H87" id="by"/><path fill="#282c33" d="M63-220v92h138v28H63V0H30v-248h175v28H63" id="bz"/><path fill="#282c33" d="M30 0v-248h187v28H63v79h144v27H63v87h162V0H30" id="bA"/><path fill="#282c33" d="M33-261c38 41 65 92 65 168S71 34 33 75H2C39 34 66-17 66-93S39-220 2-261h31" id="bB"/><g id="j"><use transform="matrix(0.05,0,0,0.05,0,0)" xlink:href="#by"/><use transform="matrix(0.05,0,0,0.05,5.95,0)" xlink:href="#bz"/><use transform="matrix(0.05,0,0,0.05,16.900000000000002,0)" xlink:href="#bs"/><use transform="matrix(0.05,0,0,0.05,22.85,0)" xlink:href="#bk"/><use transform="matrix(0.05,0,0,0.05,32.85,0)" xlink:href="#bv"/><use transform="matrix(0.05,0,0,0.05,42.85,0)" xlink:href="#bc"/><use transform="matrix(0.05,0,0,0.05,47.85,0)" xlink:href="#bA"/><use transform="matrix(0.05,0,0,0.05,59.85,0)" xlink:href="#bv"/><use transform="matrix(0.05,0,0,0.05,69.85,0)" xlink:href="#bw"/><use transform="matrix(0.05,0,0,0.05,79.85,0)" xlink:href="#bB"/></g><path fill="#282c33" d="M205 0l-28-72H64L36 0H1l101-248h38L239 0h-34zm-38-99l-47-123c-12 45-31 82-46 123h93" id="bC"/><path fill="#282c33" d="M141 0L90-78 38 0H4l68-98-65-92h35l48 74 47-74h35l-64 92 68 98h-35" id="bD"/><g id="k"><use transform="matrix(0.05,0,0,0.05,0,0)" xlink:href="#bC"/><use transform="matrix(0.05,0,0,0.05,12,0)" xlink:href="#bD"/><use transform="matrix(0.05,0,0,0.05,21,0)" xlink:href="#bh"/><use transform="matrix(0.05,0,0,0.05,24.95,0)" xlink:href="#bk"/><use transform="matrix(0.05,0,0,0.05,34.95,0)" xlink:href="#bf"/></g><g id="l"><use transform="matrix(0.05,0,0,0.05,0,0)" xlink:href="#bn"/><use transform="matrix(0.05,0,0,0.05,10,0)" xlink:href="#bo"/><use transform="matrix(0.05,0,0,0.05,20,0)" xlink:href="#bh"/></g><path fill="#282c33" d="M210-169c-67 3-38 105-44 169h-31v-121c0-29-5-50-35-48C34-165 62-65 56 0H25l-1-190h30c1 10-1 24 2 32 10-44 99-50 107 0 11-21 27-35 58-36 85-2 47 119 55 194h-31v-121c0-29-5-49-35-48" id="bE"/><g id="m"><use transform="matrix(0.05,0,0,0.05,0,0)" xlink:href="#bf"/><use transform="matrix(0.05,0,0,0.05,9,0)" xlink:href="#bh"/><use transform="matrix(0.05,0,0,0.05,12.949999999999998,0)" xlink:href="#bE"/><use transform="matrix(0.05,0,0,0.05,27.899999999999995,0)" xlink:href="#bt"/><use transform="matrix(0.05,0,0,0.05,37.9,0)" xlink:href="#bj"/><use transform="matrix(0.05,0,0,0.05,41.85,0)" xlink:href="#bh"/><use transform="matrix(0.05,0,0,0.05,45.800000000000004,0)" xlink:href="#bx"/><use transform="matrix(0.05,0,0,0.05,50.800000000000004,0)" xlink:href="#bh"/><use transform="matrix(0.05,0,0,0.05,54.75,0)" xlink:href="#aZ"/></g><path fill="#282c33" d="M177-190C167-65 218 103 67 71c-23-6-38-20-44-43l32-5c15 47 100 32 89-28v-30C133-14 115 1 83 1 29 1 15-40 15-95c0-56 16-97 71-98 29-1 48 16 59 35 1-10 0-23 2-32h30zM94-22c36 0 50-32 50-73 0-42-14-75-50-75-39 0-46 34-46 75s6 73 46 73" id="bF"/><g id="n"><use transform="matrix(0.05,0,0,0.05,0,0)" xlink:href="#bF"/><use transform="matrix(0.05,0,0,0.05,10,0)" xlink:href="#bs"/><use transform="matrix(0.05,0,0,0.05,15.949999999999998,0)" xlink:href="#ba"/><use transform="matrix(0.05,0,0,0.05,25.950000000000003,0)" xlink:href="#bv"/><use transform="matrix(0.05,0,0,0.05,35.95,0)" xlink:href="#bw"/><use transform="matrix(0.05,0,0,0.05,45.95,0)" xlink:href="#aZ"/><use transform="matrix(0.05,0,0,0.05,55.95,0)" xlink:href="#bE"/><use transform="matrix(0.05,0,0,0.05,70.9,0)" xlink:href="#aZ"/><use transform="matrix(0.05,0,0,0.05,80.9,0)" xlink:href="#bv"/><use transform="matrix(0.05,0,0,0.05,90.9,0)" xlink:href="#bc"/></g><path fill="#282c33" d="M47-170H22l-4-78h33" id="bG"/><g id="o"><use transform="matrix(0.05,0,0,0.05,0,0)" xlink:href="#bj"/><use transform="matrix(0.05,0,0,0.05,3.95,0)" xlink:href="#bG"/><use transform="matrix(0.05,0,0,0.05,7.3500000000000005,0)" xlink:href="#aZ"/><use transform="matrix(0.05,0,0,0.05,17.35,0)" xlink:href="#bD"/><use transform="matrix(0.05,0,0,0.05,26.35,0)" xlink:href="#bu"/><use transform="matrix(0.05,0,0,0.05,36.35,0)" xlink:href="#bb"/><use transform="matrix(0.05,0,0,0.05,45.35,0)" xlink:href="#bo"/><use transform="matrix(0.05,0,0,0.05,55.35,0)" xlink:href="#bc"/><use transform="matrix(0.05,0,0,0.05,60.35,0)" xlink:href="#bh"/><use transform="matrix(0.05,0,0,0.05,64.3,0)" xlink:href="#bk"/><use transform="matrix(0.05,0,0,0.05,74.3,0)" xlink:href="#bv"/></g><g id="p"><use transform="matrix(0.05,0,0,0.05,0,0)" xlink:href="#bw"/><use transform="matrix(0.05,0,0,0.05,10,0)" xlink:href="#aZ"/></g><path fill="#282c33" d="M100-194c63 0 86 42 84 106H49c0 40 14 67 53 68 26 1 43-12 49-29l28 8c-11 28-37 45-77 45C44 4 14-33 15-96c1-61 26-98 85-98zm52 81c6-60-76-77-97-28-3 7-6 17-6 28h103zm-32-149c12 18 30 30 39 51-31 2-38-20-57-30-20 10-27 32-59 30 9-22 29-33 41-51h36" id="bH"/><g id="q"><use transform="matrix(0.05,0,0,0.05,0,0)" xlink:href="#bs"/><use transform="matrix(0.05,0,0,0.05,5.95,0)" xlink:href="#aZ"/><use transform="matrix(0.05,0,0,0.05,15.949999999999998,0)" xlink:href="#bn"/><use transform="matrix(0.05,0,0,0.05,25.950000000000003,0)" xlink:href="#bo"/><use transform="matrix(0.05,0,0,0.05,35.95,0)" xlink:href="#bH"/><use transform="matrix(0.05,0,0,0.05,45.95,0)" xlink:href="#bc"/><use transform="matrix(0.05,0,0,0.05,50.95,0)" xlink:href="#aZ"/><use transform="matrix(0.05,0,0,0.05,60.95,0)" xlink:href="#bf"/></g><path fill="#282c33" d="M197 0v-115H63V0H30v-248h33v105h134v-105h34V0h-34" id="bI"/><path fill="#282c33" d="M127-220V0H93v-220H8v-28h204v28h-85" id="bJ"/><path fill="#282c33" d="M30-248c87 1 191-15 191 75 0 78-77 80-158 76V0H30v-248zm33 125c57 0 124 11 124-50 0-59-68-47-124-48v98" id="bK"/><g id="r"><use transform="matrix(0.05,0,0,0.05,0,0)" xlink:href="#bI"/><use transform="matrix(0.05,0,0,0.05,12.950000000000001,0)" xlink:href="#bJ"/><use transform="matrix(0.05,0,0,0.05,23.900000000000002,0)" xlink:href="#bJ"/><use transform="matrix(0.05,0,0,0.05,34.85,0)" xlink:href="#bK"/></g><path fill="#282c33" d="M141-36C126-15 110 5 73 4 37 3 15-17 15-53c-1-64 63-63 125-63 3-35-9-54-41-54-24 1-41 7-42 31l-33-3c5-37 33-52 76-52 45 0 72 20 72 64v82c-1 20 7 32 28 27v20c-31 9-61-2-59-35zM48-53c0 20 12 33 32 33 41-3 63-29 60-74-43 2-92-5-92 41zm62-158l-58-49v-5h36c12 19 30 32 38 54h-16" id="bL"/><use transform="matrix(0.05,0,0,0.05,0,0)" xlink:href="#bL" id="s"/><g id="t"><use transform="matrix(0.05,0,0,0.05,0,0)" xlink:href="#bt"/><use transform="matrix(0.05,0,0,0.05,10,0)" xlink:href="#ba"/><use transform="matrix(0.05,0,0,0.05,20,0)" xlink:href="#bs"/><use transform="matrix(0.05,0,0,0.05,25.950000000000003,0)" xlink:href="#bc"/><use transform="matrix(0.05,0,0,0.05,30.950000000000003,0)" xlink:href="#bh"/><use transform="matrix(0.05,0,0,0.05,34.9,0)" xlink:href="#bs"/></g><path fill="#282c33" d="M100-194c62-1 85 37 85 99 1 63-27 99-86 99S16-35 15-95c0-66 28-99 85-99zM99-20c44 1 53-31 53-75 0-43-8-75-51-75s-53 32-53 75 10 74 51 75zm20-242c12 18 30 30 39 51-31 2-38-20-57-30-20 10-27 32-59 30 9-22 29-33 41-51h36" id="bM"/><g id="u"><use transform="matrix(0.05,0,0,0.05,0,0)" xlink:href="#bb"/><use transform="matrix(0.05,0,0,0.05,9,0)" xlink:href="#bM"/><use transform="matrix(0.05,0,0,0.05,19,0)" xlink:href="#bc"/><use transform="matrix(0.05,0,0,0.05,24,0)" xlink:href="#bu"/></g><g id="v"><use transform="matrix(0.05,0,0,0.05,0,0)" xlink:href="#bb"/><use transform="matrix(0.05,0,0,0.05,9,0)" xlink:href="#bj"/><use transform="matrix(0.05,0,0,0.05,12.949999999999998,0)" xlink:href="#bh"/><use transform="matrix(0.05,0,0,0.05,16.9,0)" xlink:href="#aZ"/><use transform="matrix(0.05,0,0,0.05,26.899999999999995,0)" xlink:href="#bv"/><use transform="matrix(0.05,0,0,0.05,36.9,0)" xlink:href="#bc"/></g><g id="w"><use transform="matrix(0.05,0,0,0.05,0,0)" xlink:href="#bb"/><use transform="matrix(0.05,0,0,0.05,9,0)" xlink:href="#bk"/><use transform="matrix(0.05,0,0,0.05,19,0)" xlink:href="#bE"/><use transform="matrix(0.05,0,0,0.05,33.95,0)" xlink:href="#bE"/><use transform="matrix(0.05,0,0,0.05,48.900000000000006,0)" xlink:href="#aZ"/></g><g id="x"><use transform="matrix(0.05,0,0,0.05,0,0)" xlink:href="#bf"/><use transform="matrix(0.05,0,0,0.05,9,0)" xlink:href="#aZ"/><use transform="matrix(0.05,0,0,0.05,19,0)" xlink:href="#bs"/><use transform="matrix(0.05,0,0,0.05,24.95,0)" xlink:href="#bq"/><use transform="matrix(0.05,0,0,0.05,33.95,0)" xlink:href="#aZ"/><use transform="matrix(0.05,0,0,0.05,43.95,0)" xlink:href="#bo"/><use transform="matrix(0.05,0,0,0.05,53.95,0)" xlink:href="#bs"/><use transform="matrix(0.05,0,0,0.05,58.900000000000006,0)" xlink:href="#bd"/></g><g id="y"><use transform="matrix(0.05,0,0,0.05,0,0)" xlink:href="#bA"/><use transform="matrix(0.05,0,0,0.05,12,0)" xlink:href="#bD"/><use transform="matrix(0.05,0,0,0.05,21,0)" xlink:href="#bt"/><use transform="matrix(0.05,0,0,0.05,31,0)" xlink:href="#bs"/><use transform="matrix(0.05,0,0,0.05,36.95,0)" xlink:href="#aZ"/><use transform="matrix(0.05,0,0,0.05,46.95,0)" xlink:href="#bf"/><use transform="matrix(0.05,0,0,0.05,55.95,0)" xlink:href="#bf"/><use transform="matrix(0.05,0,0,0.05,64.95,0)" xlink:href="#bd"/><use transform="matrix(0.05,0,0,0.05,69.95,0)" xlink:href="#be"/><use transform="matrix(0.05,0,0,0.05,73.9,0)" xlink:href="#bf"/></g><path fill="#282c33" d="M206 0h-36l-40-164L89 0H53L-1-190h32L70-26l43-164h34l41 164 42-164h31" id="bN"/><path fill="#282c33" d="M143 0L79-87 56-68V0H24v-261h32v163l83-92h37l-77 82L181 0h-38" id="bO"/><g id="z"><use transform="matrix(0.05,0,0,0.05,0,0)" xlink:href="#bz"/><use transform="matrix(0.05,0,0,0.05,10.950000000000001,0)" xlink:href="#bs"/><use transform="matrix(0.05,0,0,0.05,16.900000000000002,0)" xlink:href="#ba"/><use transform="matrix(0.05,0,0,0.05,26.900000000000002,0)" xlink:href="#bE"/><use transform="matrix(0.05,0,0,0.05,41.85,0)" xlink:href="#aZ"/><use transform="matrix(0.05,0,0,0.05,51.85,0)" xlink:href="#bN"/><use transform="matrix(0.05,0,0,0.05,64.8,0)" xlink:href="#bk"/><use transform="matrix(0.05,0,0,0.05,74.8,0)" xlink:href="#bs"/><use transform="matrix(0.05,0,0,0.05,80.75,0)" xlink:href="#bO"/></g><path fill="#282c33" d="M190 0L58-211 59 0H30v-248h39L202-35l-2-213h31V0h-41" id="bP"/><g id="A"><use transform="matrix(0.05,0,0,0.05,0,0)" xlink:href="#bP"/><use transform="matrix(0.05,0,0,0.05,12.950000000000001,0)" xlink:href="#bk"/><use transform="matrix(0.05,0,0,0.05,22.950000000000003,0)" xlink:href="#bw"/><use transform="matrix(0.05,0,0,0.05,32.95,0)" xlink:href="#aZ"/><use transform="matrix(0.05,0,0,0.05,42.95,0)" xlink:href="#bd"/><use transform="matrix(0.05,0,0,0.05,47.95,0)" xlink:href="#be"/><use transform="matrix(0.05,0,0,0.05,51.900000000000006,0)" xlink:href="#bf"/></g><g id="B"><use transform="matrix(0.05,0,0,0.05,0,0)" xlink:href="#bt"/><use transform="matrix(0.05,0,0,0.05,10,0)" xlink:href="#bk"/><use transform="matrix(0.05,0,0,0.05,20,0)" xlink:href="#bo"/><use transform="matrix(0.05,0,0,0.05,30,0)" xlink:href="#bs"/></g><g id="C"><use transform="matrix(0.05,0,0,0.05,0,0)" xlink:href="#bF"/><use transform="matrix(0.05,0,0,0.05,10,0)" xlink:href="#bu"/><use transform="matrix(0.05,0,0,0.05,20,0)" xlink:href="#bs"/><use transform="matrix(0.05,0,0,0.05,25.950000000000003,0)" xlink:href="#aZ"/><use transform="matrix(0.05,0,0,0.05,35.95,0)" xlink:href="#bs"/></g><g id="D"><use transform="matrix(0.05,0,0,0.05,0,0)" xlink:href="#bj"/><use transform="matrix(0.05,0,0,0.05,3.95,0)" xlink:href="#aZ"/><use transform="matrix(0.05,0,0,0.05,13.949999999999998,0)" xlink:href="#bf"/></g><g id="E"><use transform="matrix(0.05,0,0,0.05,0,0)" xlink:href="#bs"/><use transform="matrix(0.05,0,0,0.05,5.95,0)" xlink:href="#aZ"/><use transform="matrix(0.05,0,0,0.05,15.949999999999998,0)" xlink:href="#bn"/><use transform="matrix(0.05,0,0,0.05,25.950000000000003,0)" xlink:href="#bo"/><use transform="matrix(0.05,0,0,0.05,35.95,0)" xlink:href="#bH"/><use transform="matrix(0.05,0,0,0.05,45.95,0)" xlink:href="#bc"/><use transform="matrix(0.05,0,0,0.05,50.95,0)" xlink:href="#aZ"/><use transform="matrix(0.05,0,0,0.05,60.95,0)" xlink:href="#bf"/></g><path fill="#282c33" d="M68-38c1 34 0 65-14 84H32c9-13 17-26 17-46H33v-38h35" id="bQ"/><g id="F"><use transform="matrix(0.05,0,0,0.05,0,0)" xlink:href="#bf"/><use transform="matrix(0.05,0,0,0.05,9,0)" xlink:href="#aZ"/><use transform="matrix(0.05,0,0,0.05,19,0)" xlink:href="#bs"/><use transform="matrix(0.05,0,0,0.05,24.95,0)" xlink:href="#bq"/><use transform="matrix(0.05,0,0,0.05,33.95,0)" xlink:href="#aZ"/><use transform="matrix(0.05,0,0,0.05,43.95,0)" xlink:href="#bo"/><use transform="matrix(0.05,0,0,0.05,53.95,0)" xlink:href="#bs"/><use transform="matrix(0.05,0,0,0.05,58.900000000000006,0)" xlink:href="#bQ"/></g><g id="G"><use transform="matrix(0.05,0,0,0.05,0,0)" xlink:href="#bt"/><use transform="matrix(0.05,0,0,0.05,10,0)" xlink:href="#aZ"/><use transform="matrix(0.05,0,0,0.05,20,0)" xlink:href="#bs"/><use transform="matrix(0.05,0,0,0.05,25.950000000000003,0)" xlink:href="#bE"/><use transform="matrix(0.05,0,0,0.05,40.9,0)" xlink:href="#aZ"/><use transform="matrix(0.05,0,0,0.05,50.9,0)" xlink:href="#bc"/><use transform="matrix(0.05,0,0,0.05,55.900000000000006,0)" xlink:href="#bc"/><use transform="matrix(0.05,0,0,0.05,60.900000000000006,0)" xlink:href="#bc"/><use transform="matrix(0.05,0,0,0.05,65.9,0)" xlink:href="#ba"/><use transform="matrix(0.05,0,0,0.05,75.9,0)" xlink:href="#bv"/><use transform="matrix(0.05,0,0,0.05,85.9,0)" xlink:href="#bc"/></g><g id="H"><use transform="matrix(0.05,0,0,0.05,0,0)" xlink:href="#aZ"/><use transform="matrix(0.05,0,0,0.05,10,0)" xlink:href="#bv"/><use transform="matrix(0.05,0,0,0.05,20,0)" xlink:href="#bc"/><use transform="matrix(0.05,0,0,0.05,25,0)" xlink:href="#bs"/><use transform="matrix(0.05,0,0,0.05,30.950000000000003,0)" xlink:href="#aZ"/></g><g id="I"><use transform="matrix(0.05,0,0,0.05,0,0)" xlink:href="#ba"/><use transform="matrix(0.05,0,0,0.05,10,0)" xlink:href="#bo"/><use transform="matrix(0.05,0,0,0.05,20,0)" xlink:href="#bc"/><use transform="matrix(0.05,0,0,0.05,25,0)" xlink:href="#bs"/><use transform="matrix(0.05,0,0,0.05,30.950000000000003,0)" xlink:href="#aZ"/></g><g id="J"><use transform="matrix(0.05,0,0,0.05,0,0)" xlink:href="#bw"/><use transform="matrix(0.05,0,0,0.05,10,0)" xlink:href="#bu"/><use transform="matrix(0.05,0,0,0.05,20,0)" xlink:href="#bq"/><use transform="matrix(0.05,0,0,0.05,29,0)" xlink:href="#aZ"/><use transform="matrix(0.05,0,0,0.05,39,0)" xlink:href="#bj"/><use transform="matrix(0.05,0,0,0.05,42.95,0)" xlink:href="#bk"/><use transform="matrix(0.05,0,0,0.05,52.95,0)" xlink:href="#bt"/><use transform="matrix(0.05,0,0,0.05,62.95,0)" xlink:href="#bt"/><use transform="matrix(0.05,0,0,0.05,72.95,0)" xlink:href="#aZ"/><use transform="matrix(0.05,0,0,0.05,82.95,0)" xlink:href="#bs"/></g><path fill="#282c33" d="M179-190L93 31C79 59 56 82 12 73V49c39 6 53-20 64-50L1-190h34L92-34l54-156h33" id="bR"/><g id="K"><use transform="matrix(0.05,0,0,0.05,0,0)" xlink:href="#bf"/><use transform="matrix(0.05,0,0,0.05,9,0)" xlink:href="#bR"/><use transform="matrix(0.05,0,0,0.05,18,0)" xlink:href="#bf"/><use transform="matrix(0.05,0,0,0.05,27,0)" xlink:href="#bc"/><use transform="matrix(0.05,0,0,0.05,32,0)" xlink:href="#bm"/><use transform="matrix(0.05,0,0,0.05,42,0)" xlink:href="#bE"/><use transform="matrix(0.05,0,0,0.05,56.95,0)" xlink:href="#aZ"/><use transform="matrix(0.05,0,0,0.05,66.95,0)" xlink:href="#bf"/></g><g id="L"><use transform="matrix(0.05,0,0,0.05,0,0)" xlink:href="#bw"/><use transform="matrix(0.05,0,0,0.05,10,0)" xlink:href="#aZ"/></g><g id="M"><use transform="matrix(0.05,0,0,0.05,0,0)" xlink:href="#bs"/><use transform="matrix(0.05,0,0,0.05,5.95,0)" xlink:href="#bk"/><use transform="matrix(0.05,0,0,0.05,15.949999999999998,0)" xlink:href="#bo"/><use transform="matrix(0.05,0,0,0.05,25.950000000000003,0)" xlink:href="#bc"/><use transform="matrix(0.05,0,0,0.05,30.950000000000003,0)" xlink:href="#ba"/><use transform="matrix(0.05,0,0,0.05,40.95,0)" xlink:href="#bF"/><use transform="matrix(0.05,0,0,0.05,50.95,0)" xlink:href="#aZ"/></g><g id="N"><use transform="matrix(0.05,0,0,0.05,0,0)" xlink:href="#by"/><use transform="matrix(0.05,0,0,0.05,5.95,0)" xlink:href="#bw"/><use transform="matrix(0.05,0,0,0.05,15.949999999999998,0)" xlink:href="#ba"/><use transform="matrix(0.05,0,0,0.05,25.950000000000003,0)" xlink:href="#bv"/><use transform="matrix(0.05,0,0,0.05,35.95,0)" xlink:href="#bf"/></g><g id="O"><use transform="matrix(0.05,0,0,0.05,0,0)" xlink:href="#bb"/><use transform="matrix(0.05,0,0,0.05,9,0)" xlink:href="#aZ"/><use transform="matrix(0.05,0,0,0.05,19,0)" xlink:href="#bc"/></g><path fill="#282c33" d="M33-154v-36h34v36H33zM33 0v-36h34V0H33" id="bS"/><g id="P"><use transform="matrix(0.05,0,0,0.05,0,0)" xlink:href="#aZ"/><use transform="matrix(0.05,0,0,0.05,10,0)" xlink:href="#bD"/><use transform="matrix(0.05,0,0,0.05,19,0)" xlink:href="#aZ"/><use transform="matrix(0.05,0,0,0.05,29,0)" xlink:href="#bE"/><use transform="matrix(0.05,0,0,0.05,43.95,0)" xlink:href="#bt"/><use transform="matrix(0.05,0,0,0.05,53.95,0)" xlink:href="#bj"/><use transform="matrix(0.05,0,0,0.05,57.900000000000006,0)" xlink:href="#aZ"/><use transform="matrix(0.05,0,0,0.05,67.9,0)" xlink:href="#bS"/></g><g id="Q"><use transform="matrix(0.05,0,0,0.05,0,0)" xlink:href="#bs"/><use transform="matrix(0.05,0,0,0.05,5.95,0)" xlink:href="#bk"/><use transform="matrix(0.05,0,0,0.05,15.949999999999998,0)" xlink:href="#bo"/><use transform="matrix(0.05,0,0,0.05,25.950000000000003,0)" xlink:href="#bc"/><use transform="matrix(0.05,0,0,0.05,30.950000000000003,0)" xlink:href="#aZ"/><use transform="matrix(0.05,0,0,0.05,40.95,0)" xlink:href="#bf"/></g><g id="R"><use transform="matrix(0.05,0,0,0.05,0,0)" xlink:href="#bz"/><use transform="matrix(0.05,0,0,0.05,10.950000000000001,0)" xlink:href="#bk"/><use transform="matrix(0.05,0,0,0.05,20.950000000000003,0)" xlink:href="#bv"/><use transform="matrix(0.05,0,0,0.05,30.950000000000003,0)" xlink:href="#bc"/></g><g id="S"><use transform="matrix(0.05,0,0,0.05,0,0)" xlink:href="#aZ"/><use transform="matrix(0.05,0,0,0.05,10,0)" xlink:href="#bc"/></g><g id="T"><use transform="matrix(0.05,0,0,0.05,0,0)" xlink:href="#bg"/><use transform="matrix(0.05,0,0,0.05,12,0)" xlink:href="#ba"/><use transform="matrix(0.05,0,0,0.05,22,0)" xlink:href="#bb"/><use transform="matrix(0.05,0,0,0.05,31,0)" xlink:href="#bO"/><use transform="matrix(0.05,0,0,0.05,40,0)" xlink:href="#bB"/></g><g id="U"><use transform="matrix(0.05,0,0,0.05,0,0)" xlink:href="#bP"/><use transform="matrix(0.05,0,0,0.05,12.950000000000001,0)" xlink:href="#bk"/><use transform="matrix(0.05,0,0,0.05,22.950000000000003,0)" xlink:href="#bw"/><use transform="matrix(0.05,0,0,0.05,32.95,0)" xlink:href="#aZ"/><use transform="matrix(0.05,0,0,0.05,42.95,0)" xlink:href="#bd"/><use transform="matrix(0.05,0,0,0.05,47.95,0)" xlink:href="#be"/><use transform="matrix(0.05,0,0,0.05,51.900000000000006,0)" xlink:href="#bf"/></g><g id="V"><use transform="matrix(0.05,0,0,0.05,0,0)" xlink:href="#bA"/><use transform="matrix(0.05,0,0,0.05,12,0)" xlink:href="#bv"/><use transform="matrix(0.05,0,0,0.05,22,0)" xlink:href="#bq"/><use transform="matrix(0.05,0,0,0.05,31,0)" xlink:href="#bh"/><use transform="matrix(0.05,0,0,0.05,34.95,0)" xlink:href="#bs"/><use transform="matrix(0.05,0,0,0.05,40.900000000000006,0)" xlink:href="#bk"/><use transform="matrix(0.05,0,0,0.05,50.900000000000006,0)" xlink:href="#bv"/><use transform="matrix(0.05,0,0,0.05,60.900000000000006,0)" xlink:href="#bv"/><use transform="matrix(0.05,0,0,0.05,70.9,0)" xlink:href="#aZ"/><use transform="matrix(0.05,0,0,0.05,80.9,0)" xlink:href="#bE"/><use transform="matrix(0.05,0,0,0.05,95.85000000000001,0)" xlink:href="#aZ"/><use transform="matrix(0.05,0,0,0.05,105.85000000000001,0)" xlink:href="#bv"/><use transform="matrix(0.05,0,0,0.05,115.85000000000001,0)" xlink:href="#bc"/></g><g id="W"><use transform="matrix(0.05,0,0,0.05,0,0)" xlink:href="#bw"/><use transform="matrix(0.05,0,0,0.05,10,0)" xlink:href="#bG"/><use transform="matrix(0.05,0,0,0.05,13.4,0)" xlink:href="#aZ"/><use transform="matrix(0.05,0,0,0.05,23.4,0)" xlink:href="#bD"/><use transform="matrix(0.05,0,0,0.05,32.4,0)" xlink:href="#bu"/><use transform="matrix(0.05,0,0,0.05,42.4,0)" xlink:href="#bb"/><use transform="matrix(0.05,0,0,0.05,51.400000000000006,0)" xlink:href="#bo"/><use transform="matrix(0.05,0,0,0.05,61.400000000000006,0)" xlink:href="#bc"/><use transform="matrix(0.05,0,0,0.05,66.4,0)" xlink:href="#bh"/><use transform="matrix(0.05,0,0,0.05,70.35000000000001,0)" xlink:href="#bk"/><use transform="matrix(0.05,0,0,0.05,80.35000000000001,0)" xlink:href="#bv"/></g><use transform="matrix(0.05,0,0,0.05,0,0)" xlink:href="#bd" id="X"/><path fill="#282c33" d="M9 0v-24l116-142H16v-24h144v24L44-24h123V0H9" id="bT"/><g id="Y"><use transform="matrix(0.05,0,0,0.05,0,0)" xlink:href="#br"/><use transform="matrix(0.05,0,0,0.05,12,0)" xlink:href="#aZ"/><use transform="matrix(0.05,0,0,0.05,22,0)" xlink:href="#bn"/><use transform="matrix(0.05,0,0,0.05,32,0)" xlink:href="#bo"/><use transform="matrix(0.05,0,0,0.05,42,0)" xlink:href="#aZ"/><use transform="matrix(0.05,0,0,0.05,52,0)" xlink:href="#bj"/><use transform="matrix(0.05,0,0,0.05,55.95,0)" xlink:href="#bh"/><use transform="matrix(0.05,0,0,0.05,59.900000000000006,0)" xlink:href="#bT"/><use transform="matrix(0.05,0,0,0.05,68.9,0)" xlink:href="#aZ"/></g><path fill="#282c33" d="M140-251c81 0 123 46 123 126C263-46 219 4 140 4 59 4 17-45 17-125s42-126 123-126zm0 227c63 0 89-41 89-101s-29-99-89-99c-61 0-89 39-89 99S79-25 140-24" id="bU"/><path fill="#282c33" d="M240 0l2-218c-23 76-54 145-80 218h-23L58-218 59 0H30v-248h44l77 211c21-75 51-140 76-211h43V0h-30" id="bV"/><g id="Z"><use transform="matrix(0.05,0,0,0.05,0,0)" xlink:href="#bU"/><use transform="matrix(0.05,0,0,0.05,14,0)" xlink:href="#aY"/><use transform="matrix(0.05,0,0,0.05,26.950000000000003,0)" xlink:href="#bV"/></g><path fill="#282c33" d="M16-82v-28h88v28H16" id="bW"/><g id="aa"><use transform="matrix(0.05,0,0,0.05,0,0)" xlink:href="#by"/><use transform="matrix(0.05,0,0,0.05,5.95,0)" xlink:href="#bU"/><use transform="matrix(0.05,0,0,0.05,19.95,0)" xlink:href="#bi"/><use transform="matrix(0.05,0,0,0.05,29.950000000000003,0)" xlink:href="#be"/><use transform="matrix(0.05,0,0,0.05,33.9,0)" xlink:href="#aZ"/><use transform="matrix(0.05,0,0,0.05,43.9,0)" xlink:href="#bb"/><use transform="matrix(0.05,0,0,0.05,52.900000000000006,0)" xlink:href="#bc"/><use transform="matrix(0.05,0,0,0.05,57.900000000000006,0)" xlink:href="#bW"/><use transform="matrix(0.05,0,0,0.05,63.85,0)" xlink:href="#aY"/><use transform="matrix(0.05,0,0,0.05,76.8,0)" xlink:href="#aZ"/><use transform="matrix(0.05,0,0,0.05,86.8,0)" xlink:href="#bj"/><use transform="matrix(0.05,0,0,0.05,90.75,0)" xlink:href="#ba"/><use transform="matrix(0.05,0,0,0.05,100.75,0)" xlink:href="#bc"/><use transform="matrix(0.05,0,0,0.05,105.75,0)" xlink:href="#bh"/><use transform="matrix(0.05,0,0,0.05,109.7,0)" xlink:href="#bk"/><use transform="matrix(0.05,0,0,0.05,119.7,0)" xlink:href="#bv"/><use transform="matrix(0.05,0,0,0.05,129.7,0)" xlink:href="#ba"/><use transform="matrix(0.05,0,0,0.05,139.7,0)" xlink:href="#bj"/></g><g id="ab"><use transform="matrix(0.05,0,0,0.05,0,0)" xlink:href="#bV"/><use transform="matrix(0.05,0,0,0.05,14.950000000000001,0)" xlink:href="#ba"/><use transform="matrix(0.05,0,0,0.05,24.950000000000003,0)" xlink:href="#bt"/><use transform="matrix(0.05,0,0,0.05,34.95,0)" xlink:href="#bt"/><use transform="matrix(0.05,0,0,0.05,44.95,0)" xlink:href="#bh"/><use transform="matrix(0.05,0,0,0.05,48.900000000000006,0)" xlink:href="#bv"/><use transform="matrix(0.05,0,0,0.05,58.900000000000006,0)" xlink:href="#bF"/><use transform="matrix(0.05,0,0,0.05,68.9,0)" xlink:href="#bB"/></g><g id="ac"><use transform="matrix(0.05,0,0,0.05,0,0)" xlink:href="#bx"/><use transform="matrix(0.05,0,0,0.05,5,0)" xlink:href="#ba"/><use transform="matrix(0.05,0,0,0.05,15,0)" xlink:href="#bb"/><use transform="matrix(0.05,0,0,0.05,24,0)" xlink:href="#bh"/><use transform="matrix(0.05,0,0,0.05,27.950000000000003,0)" xlink:href="#bj"/><use transform="matrix(0.05,0,0,0.05,31.899999999999995,0)" xlink:href="#bh"/><use transform="matrix(0.05,0,0,0.05,35.85,0)" xlink:href="#bc"/><use transform="matrix(0.05,0,0,0.05,40.85,0)" xlink:href="#aZ"/></g><g id="ad"><use transform="matrix(0.05,0,0,0.05,0,0)" xlink:href="#bj"/><use transform="matrix(0.05,0,0,0.05,3.95,0)" xlink:href="#ba"/></g><g id="ae"><use transform="matrix(0.05,0,0,0.05,0,0)" xlink:href="#bb"/><use transform="matrix(0.05,0,0,0.05,9,0)" xlink:href="#bk"/><use transform="matrix(0.05,0,0,0.05,19,0)" xlink:href="#bE"/><use transform="matrix(0.05,0,0,0.05,33.95,0)" xlink:href="#bE"/><use transform="matrix(0.05,0,0,0.05,48.900000000000006,0)" xlink:href="#bo"/><use transform="matrix(0.05,0,0,0.05,58.900000000000006,0)" xlink:href="#bv"/><use transform="matrix(0.05,0,0,0.05,68.9,0)" xlink:href="#bh"/><use transform="matrix(0.05,0,0,0.05,72.85000000000001,0)" xlink:href="#bb"/><use transform="matrix(0.05,0,0,0.05,81.85000000000001,0)" xlink:href="#ba"/><use transform="matrix(0.05,0,0,0.05,91.85000000000001,0)" xlink:href="#bc"/><use transform="matrix(0.05,0,0,0.05,96.85000000000001,0)" xlink:href="#bh"/><use transform="matrix(0.05,0,0,0.05,100.80000000000001,0)" xlink:href="#bk"/><use transform="matrix(0.05,0,0,0.05,110.80000000000001,0)" xlink:href="#bv"/></g><g id="af"><use transform="matrix(0.05,0,0,0.05,0,0)" xlink:href="#ba"/><use transform="matrix(0.05,0,0,0.05,10,0)" xlink:href="#bq"/><use transform="matrix(0.05,0,0,0.05,19,0)" xlink:href="#aZ"/><use transform="matrix(0.05,0,0,0.05,29,0)" xlink:href="#bb"/></g><g id="ag"><use transform="matrix(0.05,0,0,0.05,0,0)" xlink:href="#bj"/><use transform="matrix(0.05,0,0,0.05,3.95,0)" xlink:href="#aZ"/><use transform="matrix(0.05,0,0,0.05,13.949999999999998,0)" xlink:href="#bf"/></g><g id="ah"><use transform="matrix(0.05,0,0,0.05,0,0)" xlink:href="#bi"/><use transform="matrix(0.05,0,0,0.05,10,0)" xlink:href="#ba"/><use transform="matrix(0.05,0,0,0.05,20,0)" xlink:href="#bf"/><use transform="matrix(0.05,0,0,0.05,29,0)" xlink:href="#aZ"/><use transform="matrix(0.05,0,0,0.05,39,0)" xlink:href="#bf"/></g><g id="ai"><use transform="matrix(0.05,0,0,0.05,0,0)" xlink:href="#bw"/><use transform="matrix(0.05,0,0,0.05,10,0)" xlink:href="#bk"/><use transform="matrix(0.05,0,0,0.05,20,0)" xlink:href="#bv"/><use transform="matrix(0.05,0,0,0.05,30,0)" xlink:href="#bv"/><use transform="matrix(0.05,0,0,0.05,40,0)" xlink:href="#bu"/><use transform="matrix(0.05,0,0,0.05,50,0)" xlink:href="#aZ"/><use transform="matrix(0.05,0,0,0.05,60,0)" xlink:href="#bf"/><use transform="matrix(0.05,0,0,0.05,69,0)" xlink:href="#bd"/></g><g id="aj"><use transform="matrix(0.05,0,0,0.05,0,0)" xlink:href="#by"/><use transform="matrix(0.05,0,0,0.05,5.95,0)" xlink:href="#be"/><use transform="matrix(0.05,0,0,0.05,9.9,0)" xlink:href="#ba"/><use transform="matrix(0.05,0,0,0.05,19.9,0)" xlink:href="#bq"/><use transform="matrix(0.05,0,0,0.05,28.899999999999995,0)" xlink:href="#ba"/><use transform="matrix(0.05,0,0,0.05,38.9,0)" xlink:href="#bf"/><use transform="matrix(0.05,0,0,0.05,47.9,0)" xlink:href="#bb"/><use transform="matrix(0.05,0,0,0.05,56.900000000000006,0)" xlink:href="#bs"/><use transform="matrix(0.05,0,0,0.05,62.85,0)" xlink:href="#bh"/><use transform="matrix(0.05,0,0,0.05,66.8,0)" xlink:href="#bt"/><use transform="matrix(0.05,0,0,0.05,76.8,0)" xlink:href="#bc"/><use transform="matrix(0.05,0,0,0.05,81.8,0)" xlink:href="#bB"/></g><path fill="#282c33" d="M140-251c81 0 123 46 123 126C263-53 228-8 163 1c7 30 30 48 69 40v23c-55 16-95-15-103-61C56-3 17-48 17-125c0-80 42-126 123-126zm0 227c63 0 89-41 89-101s-29-99-89-99c-61 0-89 39-89 99S79-25 140-24" id="bX"/><path fill="#282c33" d="M30 0v-248h33v221h125V0H30" id="bY"/><g id="ak"><use transform="matrix(0.05,0,0,0.05,0,0)" xlink:href="#bK"/><use transform="matrix(0.05,0,0,0.05,12,0)" xlink:href="#bk"/><use transform="matrix(0.05,0,0,0.05,22,0)" xlink:href="#bf"/><use transform="matrix(0.05,0,0,0.05,31,0)" xlink:href="#bc"/><use transform="matrix(0.05,0,0,0.05,36,0)" xlink:href="#bF"/><use transform="matrix(0.05,0,0,0.05,46,0)" xlink:href="#bs"/><use transform="matrix(0.05,0,0,0.05,51.95,0)" xlink:href="#aZ"/><use transform="matrix(0.05,0,0,0.05,61.95,0)" xlink:href="#br"/><use transform="matrix(0.05,0,0,0.05,73.95,0)" xlink:href="#bX"/><use transform="matrix(0.05,0,0,0.05,87.95,0)" xlink:href="#bY"/></g><g id="al"><use transform="matrix(0.05,0,0,0.05,0,0)" xlink:href="#br"/><use transform="matrix(0.05,0,0,0.05,12,0)" xlink:href="#bR"/><use transform="matrix(0.05,0,0,0.05,21,0)" xlink:href="#bf"/><use transform="matrix(0.05,0,0,0.05,30,0)" xlink:href="#bc"/><use transform="matrix(0.05,0,0,0.05,35,0)" xlink:href="#bm"/><use transform="matrix(0.05,0,0,0.05,45,0)" xlink:href="#bE"/><use transform="matrix(0.05,0,0,0.05,59.95,0)" xlink:href="#aZ"/></g><g id="am"><use transform="matrix(0.05,0,0,0.05,0,0)" xlink:href="#bF"/><use transform="matrix(0.05,0,0,0.05,10,0)" xlink:href="#aZ"/><use transform="matrix(0.05,0,0,0.05,20,0)" xlink:href="#bf"/><use transform="matrix(0.05,0,0,0.05,29,0)" xlink:href="#bc"/><use transform="matrix(0.05,0,0,0.05,34,0)" xlink:href="#bh"/><use transform="matrix(0.05,0,0,0.05,37.95,0)" xlink:href="#bk"/><use transform="matrix(0.05,0,0,0.05,47.95,0)" xlink:href="#bv"/></g><g id="an"><use transform="matrix(0.05,0,0,0.05,0,0)" xlink:href="#bi"/><use transform="matrix(0.05,0,0,0.05,10,0)" xlink:href="#ba"/><use transform="matrix(0.05,0,0,0.05,20,0)" xlink:href="#bf"/><use transform="matrix(0.05,0,0,0.05,29,0)" xlink:href="#aZ"/></g><g id="ao"><use transform="matrix(0.05,0,0,0.05,0,0)" xlink:href="#bw"/><use transform="matrix(0.05,0,0,0.05,10,0)" xlink:href="#bk"/><use transform="matrix(0.05,0,0,0.05,20,0)" xlink:href="#bv"/><use transform="matrix(0.05,0,0,0.05,30,0)" xlink:href="#bv"/><use transform="matrix(0.05,0,0,0.05,40,0)" xlink:href="#bu"/><use transform="matrix(0.05,0,0,0.05,50,0)" xlink:href="#aZ"/><use transform="matrix(0.05,0,0,0.05,60,0)" xlink:href="#bf"/></g><g id="ap"><use transform="matrix(0.05,0,0,0.05,0,0)" xlink:href="#bs"/><use transform="matrix(0.05,0,0,0.05,5.95,0)" xlink:href="#aZ"/><use transform="matrix(0.05,0,0,0.05,15.949999999999998,0)" xlink:href="#bj"/><use transform="matrix(0.05,0,0,0.05,19.9,0)" xlink:href="#ba"/><use transform="matrix(0.05,0,0,0.05,29.899999999999995,0)" xlink:href="#bc"/><use transform="matrix(0.05,0,0,0.05,34.9,0)" xlink:href="#bh"/><use transform="matrix(0.05,0,0,0.05,38.85,0)" xlink:href="#bk"/><use transform="matrix(0.05,0,0,0.05,48.85,0)" xlink:href="#bv"/><use transform="matrix(0.05,0,0,0.05,58.85,0)" xlink:href="#bv"/><use transform="matrix(0.05,0,0,0.05,68.85,0)" xlink:href="#aZ"/><use transform="matrix(0.05,0,0,0.05,78.85,0)" xlink:href="#bj"/><use transform="matrix(0.05,0,0,0.05,82.8,0)" xlink:href="#bj"/><use transform="matrix(0.05,0,0,0.05,86.75,0)" xlink:href="#aZ"/></g><g id="aq"><use transform="matrix(0.05,0,0,0.05,0,0)" xlink:href="#bk"/><use transform="matrix(0.05,0,0,0.05,10,0)" xlink:href="#bi"/><use transform="matrix(0.05,0,0,0.05,20,0)" xlink:href="#be"/><use transform="matrix(0.05,0,0,0.05,23.95,0)" xlink:href="#aZ"/><use transform="matrix(0.05,0,0,0.05,33.95,0)" xlink:href="#bc"/></g><path fill="#282c33" d="M143 4C61 4 22-44 18-125c-5-107 100-154 193-111 17 8 29 25 37 43l-32 9c-13-25-37-40-76-40-61 0-88 39-88 99 0 61 29 100 91 101 35 0 62-11 79-27v-45h-74v-28h105v86C228-13 192 4 143 4" id="bZ"/><path fill="#282c33" d="M30-248c118-7 216 8 213 122C240-48 200 0 122 0H30v-248zM63-27c89 8 146-16 146-99s-60-101-146-95v194" id="ca"/><g id="ar"><use transform="matrix(0.05,0,0,0.05,0,0)" xlink:href="#by"/><use transform="matrix(0.05,0,0,0.05,5.95,0)" xlink:href="#br"/><use transform="matrix(0.05,0,0,0.05,17.95,0)" xlink:href="#bZ"/><use transform="matrix(0.05,0,0,0.05,31.950000000000003,0)" xlink:href="#bg"/><use transform="matrix(0.05,0,0,0.05,43.95,0)" xlink:href="#ca"/><use transform="matrix(0.05,0,0,0.05,56.900000000000006,0)" xlink:href="#aY"/><use transform="matrix(0.05,0,0,0.05,69.85000000000001,0)" xlink:href="#bU"/><use transform="matrix(0.05,0,0,0.05,83.85000000000001,0)" xlink:href="#bB"/><use transform="matrix(0.05,0,0,0.05,89.80000000000001,0)" xlink:href="#bd"/></g><path d="M232-93c-1 65-40 97-104 97C67 4 28-28 28-90v-158h33c8 89-33 224 67 224 102 0 64-133 71-224h33v155" id="cb"/><path d="M59-47c-2 24 18 29 38 22v24C64 9 27 4 27-40v-127H5v-23h24l9-43h21v43h35v23H59v120" id="cc"/><path d="M24-231v-30h32v30H24zM24 0v-190h32V0H24" id="cd"/><path d="M24 0v-261h32V0H24" id="ce"/><path d="M135-143c-3-34-86-38-87 0 15 53 115 12 119 90S17 21 10-45l28-5c4 36 97 45 98 0-10-56-113-15-118-90-4-57 82-63 122-42 12 7 21 19 24 35" id="cf"/><path d="M141-36C126-15 110 5 73 4 37 3 15-17 15-53c-1-64 63-63 125-63 3-35-9-54-41-54-24 1-41 7-42 31l-33-3c5-37 33-52 76-52 45 0 72 20 72 64v82c-1 20 7 32 28 27v20c-31 9-61-2-59-35zM48-53c0 20 12 33 32 33 41-3 63-29 60-74-43 2-92-5-92 41" id="cg"/><path d="M100-194c63 0 86 42 84 106H49c0 40 14 67 53 68 26 1 43-12 49-29l28 8c-11 28-37 45-77 45C44 4 14-33 15-96c1-61 26-98 85-98zm52 81c6-60-76-77-97-28-3 7-6 17-6 28h103" id="ch"/><path d="M84 4C-5 8 30-112 23-190h32v120c0 31 7 50 39 49 72-2 45-101 50-169h31l1 190h-30c-1-10 1-25-2-33-11 22-28 36-60 37" id="ci"/><path d="M114-163C36-179 61-72 57 0H25l-1-190h30c1 12-1 29 2 39 6-27 23-49 58-41v29" id="cj"/><g id="as"><use transform="matrix(0.05,0,0,0.05,0,0)" xlink:href="#cb"/><use transform="matrix(0.05,0,0,0.05,12.950000000000001,0)" xlink:href="#cc"/><use transform="matrix(0.05,0,0,0.05,17.950000000000003,0)" xlink:href="#cd"/><use transform="matrix(0.05,0,0,0.05,21.900000000000002,0)" xlink:href="#ce"/><use transform="matrix(0.05,0,0,0.05,25.85,0)" xlink:href="#cd"/><use transform="matrix(0.05,0,0,0.05,29.8,0)" xlink:href="#cf"/><use transform="matrix(0.05,0,0,0.05,38.8,0)" xlink:href="#cg"/><use transform="matrix(0.05,0,0,0.05,48.8,0)" xlink:href="#cc"/><use transform="matrix(0.05,0,0,0.05,53.79999999999999,0)" xlink:href="#ch"/><use transform="matrix(0.05,0,0,0.05,63.79999999999999,0)" xlink:href="#ci"/><use transform="matrix(0.05,0,0,0.05,73.8,0)" xlink:href="#cj"/></g><path d="M185-189c-5-48-123-54-124 2 14 75 158 14 163 119 3 78-121 87-175 55-17-10-28-26-33-46l33-7c5 56 141 63 141-1 0-78-155-14-162-118-5-82 145-84 179-34 5 7 8 16 11 25" id="ck"/><path d="M108 0H70L1-190h34L89-25l56-165h34" id="cl"/><g id="at"><use transform="matrix(0.05,0,0,0.05,0,0)" xlink:href="#ck"/><use transform="matrix(0.05,0,0,0.05,12,0)" xlink:href="#ch"/><use transform="matrix(0.05,0,0,0.05,22,0)" xlink:href="#cj"/><use transform="matrix(0.05,0,0,0.05,27.950000000000003,0)" xlink:href="#cl"/><use transform="matrix(0.05,0,0,0.05,36.95,0)" xlink:href="#ch"/><use transform="matrix(0.05,0,0,0.05,46.95,0)" xlink:href="#ci"/><use transform="matrix(0.05,0,0,0.05,56.95,0)" xlink:href="#cj"/></g><path d="M33 0v-248h34V0H33" id="cm"/><path d="M85-194c31 0 48 13 60 33l-1-100h32l1 261h-30c-2-10 0-23-3-31C134-8 116 4 85 4 32 4 16-35 15-94c0-66 23-100 70-100zm9 24c-40 0-46 34-46 75 0 40 6 74 45 74 42 0 51-32 51-76 0-42-9-74-50-73" id="cn"/><path d="M117-194c89-4 53 116 60 194h-32v-121c0-31-8-49-39-48C34-167 62-67 57 0H25l-1-190h30c1 10-1 24 2 32 11-22 29-35 61-36" id="co"/><path d="M101-234c-31-9-42 10-38 44h38v23H63V0H32v-167H5v-23h27c-7-52 17-82 69-68v24" id="cp"/><g id="au"><use transform="matrix(0.05,0,0,0.05,0,0)" xlink:href="#cm"/><use transform="matrix(0.05,0,0,0.05,5,0)" xlink:href="#cn"/><use transform="matrix(0.05,0,0,0.05,15,0)" xlink:href="#ch"/><use transform="matrix(0.05,0,0,0.05,25,0)" xlink:href="#co"/><use transform="matrix(0.05,0,0,0.05,35,0)" xlink:href="#cc"/><use transform="matrix(0.05,0,0,0.05,40,0)" xlink:href="#cd"/><use transform="matrix(0.05,0,0,0.05,43.95,0)" xlink:href="#cp"/><use transform="matrix(0.05,0,0,0.05,48.95,0)" xlink:href="#cd"/><use transform="matrix(0.05,0,0,0.05,52.900000000000006,0)" xlink:href="#cg"/><use transform="matrix(0.05,0,0,0.05,62.900000000000006,0)" xlink:href="#co"/><use transform="matrix(0.05,0,0,0.05,72.9,0)" xlink:href="#cc"/><use transform="matrix(0.05,0,0,0.05,77.9,0)" xlink:href="#cf"/></g><path d="M87 75C49 33 22-17 22-94c0-76 28-126 65-167h31c-38 41-64 92-64 168S80 34 118 75H87" id="cq"/><path d="M137 0h-34L2-248h35l83 218 83-218h36" id="cr"/><path d="M100-194c63 0 86 42 84 106H49c0 40 14 67 53 68 26 1 43-12 49-29l28 8c-11 28-37 45-77 45C44 4 14-33 15-96c1-61 26-98 85-98zm52 81c6-60-76-77-97-28-3 7-6 17-6 28h103zm-74-98c8-23 27-35 38-54h36v5l-58 49H78" id="cs"/><path d="M96-169c-40 0-48 33-48 73s9 75 48 75c24 0 41-14 43-38l32 2c-6 37-31 61-74 61-59 0-76-41-82-99-10-93 101-131 147-64 4 7 5 14 7 22l-32 3c-4-21-16-35-41-35" id="ct"/><path d="M100-194c62-1 85 37 85 99 1 63-27 99-86 99S16-35 15-95c0-66 28-99 85-99zM99-20c44 1 53-31 53-75 0-43-8-75-51-75s-53 32-53 75 10 74 51 75" id="cu"/><g id="av"><use transform="matrix(0.05,0,0,0.05,0,0)" xlink:href="#cq"/><use transform="matrix(0.05,0,0,0.05,5.95,0)" xlink:href="#cr"/><use transform="matrix(0.05,0,0,0.05,17.95,0)" xlink:href="#cs"/><use transform="matrix(0.05,0,0,0.05,27.950000000000003,0)" xlink:href="#cj"/><use transform="matrix(0.05,0,0,0.05,33.9,0)" xlink:href="#cd"/><use transform="matrix(0.05,0,0,0.05,37.85,0)" xlink:href="#cp"/><use transform="matrix(0.05,0,0,0.05,42.85,0)" xlink:href="#cd"/><use transform="matrix(0.05,0,0,0.05,46.800000000000004,0)" xlink:href="#ct"/><use transform="matrix(0.05,0,0,0.05,55.800000000000004,0)" xlink:href="#cg"/><use transform="matrix(0.05,0,0,0.05,65.80000000000001,0)" xlink:href="#cc"/><use transform="matrix(0.05,0,0,0.05,70.80000000000001,0)" xlink:href="#cd"/><use transform="matrix(0.05,0,0,0.05,74.75000000000001,0)" xlink:href="#cu"/><use transform="matrix(0.05,0,0,0.05,84.75000000000001,0)" xlink:href="#co"/></g><g id="aw"><use transform="matrix(0.05,0,0,0.05,0,0)" xlink:href="#cg"/><use transform="matrix(0.05,0,0,0.05,10,0)" xlink:href="#cl"/><use transform="matrix(0.05,0,0,0.05,19,0)" xlink:href="#ch"/><use transform="matrix(0.05,0,0,0.05,29,0)" xlink:href="#ct"/></g><path d="M30-248c87 1 191-15 191 75 0 78-77 80-158 76V0H30v-248zm33 125c57 0 124 11 124-50 0-59-68-47-124-48v98" id="cv"/><path d="M115-194c55 1 70 41 70 98S169 2 115 4C84 4 66-9 55-30l1 105H24l-1-265h31l2 30c10-21 28-34 59-34zm-8 174c40 0 45-34 45-75s-6-73-45-74c-42 0-51 32-51 76 0 43 10 73 51 73" id="cw"/><path d="M33 0v-38h34V0H33" id="cx"/><path d="M24-231v-30h32v30H24zM-9 49c24 4 33-6 33-30v-209h32V24c2 40-23 58-65 49V49" id="cy"/><path d="M33-261c38 41 65 92 65 168S71 34 33 75H2C39 34 66-17 66-93S39-220 2-261h31" id="cz"/><g id="ax"><use transform="matrix(0.05,0,0,0.05,0,0)" xlink:href="#cv"/><use transform="matrix(0.05,0,0,0.05,12,0)" xlink:href="#cg"/><use transform="matrix(0.05,0,0,0.05,22,0)" xlink:href="#cf"/><use transform="matrix(0.05,0,0,0.05,31,0)" xlink:href="#cf"/><use transform="matrix(0.05,0,0,0.05,40,0)" xlink:href="#ch"/><use transform="matrix(0.05,0,0,0.05,50,0)" xlink:href="#cw"/><use transform="matrix(0.05,0,0,0.05,60,0)" xlink:href="#cu"/><use transform="matrix(0.05,0,0,0.05,70,0)" xlink:href="#cj"/><use transform="matrix(0.05,0,0,0.05,75.95,0)" xlink:href="#cc"/><use transform="matrix(0.05,0,0,0.05,80.95,0)" xlink:href="#cx"/><use transform="matrix(0.05,0,0,0.05,85.95,0)" xlink:href="#cy"/><use transform="matrix(0.05,0,0,0.05,89.9,0)" xlink:href="#cf"/><use transform="matrix(0.05,0,0,0.05,98.9,0)" xlink:href="#cz"/></g><path d="M127-220V0H93v-220H8v-28h204v28h-85" id="cA"/><path d="M143 0L79-87 56-68V0H24v-261h32v163l83-92h37l-77 82L181 0h-38" id="cB"/><g id="ay"><use transform="matrix(0.05,0,0,0.05,0,0)" xlink:href="#cA"/><use transform="matrix(0.05,0,0,0.05,8.950000000000001,0)" xlink:href="#cu"/><use transform="matrix(0.05,0,0,0.05,18.950000000000003,0)" xlink:href="#cB"/><use transform="matrix(0.05,0,0,0.05,27.950000000000003,0)" xlink:href="#ch"/><use transform="matrix(0.05,0,0,0.05,37.95,0)" xlink:href="#co"/></g><g id="az"><use transform="matrix(0.05,0,0,0.05,0,0)" xlink:href="#cn"/><use transform="matrix(0.05,0,0,0.05,10,0)" xlink:href="#ch"/></g><g id="aA"><use transform="matrix(0.05,0,0,0.05,0,0)" xlink:href="#cf"/><use transform="matrix(0.05,0,0,0.05,9,0)" xlink:href="#ch"/><use transform="matrix(0.05,0,0,0.05,19,0)" xlink:href="#cf"/><use transform="matrix(0.05,0,0,0.05,28,0)" xlink:href="#cf"/><use transform="matrix(0.05,0,0,0.05,37,0)" xlink:href="#cd"/><use transform="matrix(0.05,0,0,0.05,40.95,0)" xlink:href="#cu"/><use transform="matrix(0.05,0,0,0.05,50.95,0)" xlink:href="#co"/></g><g id="aB"><use transform="matrix(0.05,0,0,0.05,0,0)" xlink:href="#cq"/><use transform="matrix(0.05,0,0,0.05,5.95,0)" xlink:href="#ct"/><use transform="matrix(0.05,0,0,0.05,14.949999999999998,0)" xlink:href="#cj"/><use transform="matrix(0.05,0,0,0.05,20.9,0)" xlink:href="#cs"/><use transform="matrix(0.05,0,0,0.05,30.899999999999995,0)" xlink:href="#cg"/><use transform="matrix(0.05,0,0,0.05,40.9,0)" xlink:href="#cc"/><use transform="matrix(0.05,0,0,0.05,45.9,0)" xlink:href="#cd"/><use transform="matrix(0.05,0,0,0.05,49.85,0)" xlink:href="#cu"/><use transform="matrix(0.05,0,0,0.05,59.85,0)" xlink:href="#co"/></g><g id="aC"><use transform="matrix(0.05,0,0,0.05,0,0)" xlink:href="#cn"/><use transform="matrix(0.05,0,0,0.05,10,0)" xlink:href="#ci"/></g><g id="aD"><use transform="matrix(0.05,0,0,0.05,0,0)" xlink:href="#cc"/><use transform="matrix(0.05,0,0,0.05,5,0)" xlink:href="#cu"/><use transform="matrix(0.05,0,0,0.05,15,0)" xlink:href="#cB"/><use transform="matrix(0.05,0,0,0.05,24,0)" xlink:href="#ch"/><use transform="matrix(0.05,0,0,0.05,34,0)" xlink:href="#co"/></g><path d="M205 0l-28-72H64L36 0H1l101-248h38L239 0h-34zm-38-99l-47-123c-12 45-31 82-46 123h93" id="cC"/><path d="M30 0v-248h187v28H63v79h144v27H63v87h162V0H30" id="cD"/><path d="M140-251c81 0 123 46 123 126C263-46 219 4 140 4 59 4 17-45 17-125s42-126 123-126zm0 227c63 0 89-41 89-101s-29-99-89-99c-61 0-89 39-89 99S79-25 140-24" id="cE"/><g id="aE"><use transform="matrix(0.05,0,0,0.05,0,0)" xlink:href="#cv"/><use transform="matrix(0.05,0,0,0.05,10.65,0)" xlink:href="#cC"/><use transform="matrix(0.05,0,0,0.05,22.65,0)" xlink:href="#ck"/><use transform="matrix(0.05,0,0,0.05,34.65,0)" xlink:href="#cD"/><use transform="matrix(0.05,0,0,0.05,46.65,0)" xlink:href="#cA"/><use transform="matrix(0.05,0,0,0.05,57.25,0)" xlink:href="#cE"/><use transform="matrix(0.05,0,0,0.05,71.25,0)" xlink:href="#cz"/></g><path d="M233-177c-1 41-23 64-60 70L243 0h-38l-65-103H63V0H30v-248c88 3 205-21 203 71zM63-129c60-2 137 13 137-47 0-61-80-42-137-45v92" id="cF"/><path d="M145-31C134-9 116 4 85 4 32 4 16-35 15-94c0-59 17-99 70-100 32-1 48 14 60 33 0-11-1-24 2-32h30l-1 268h-32zM93-21c41 0 51-33 51-76s-8-73-50-73c-40 0-46 35-46 75s5 74 45 74" id="cG"/><path d="M100-194c63 0 86 42 84 106H49c0 40 14 67 53 68 26 1 43-12 49-29l28 8c-11 28-37 45-77 45C44 4 14-33 15-96c1-61 26-98 85-98zm52 81c6-60-76-77-97-28-3 7-6 17-6 28h103zm-32-149c12 18 30 30 39 51-31 2-38-20-57-30-20 10-27 32-59 30 9-22 29-33 41-51h36" id="cH"/><g id="aF"><use transform="matrix(0.05,0,0,0.05,0,0)" xlink:href="#cF"/><use transform="matrix(0.05,0,0,0.05,12.950000000000001,0)" xlink:href="#ch"/><use transform="matrix(0.05,0,0,0.05,22.950000000000003,0)" xlink:href="#cG"/><use transform="matrix(0.05,0,0,0.05,32.95,0)" xlink:href="#ci"/><use transform="matrix(0.05,0,0,0.05,42.95,0)" xlink:href="#cH"/><use transform="matrix(0.05,0,0,0.05,52.95,0)" xlink:href="#cc"/><use transform="matrix(0.05,0,0,0.05,57.95,0)" xlink:href="#ch"/></g><path d="M118-107v75H92v-75H18v-26h74v-75h26v75h74v26h-74" id="cI"/><use transform="matrix(0.05,0,0,0.05,0,0)" xlink:href="#cI" id="aG"/><g id="aH"><use transform="matrix(0.05,0,0,0.05,0,0)" xlink:href="#cA"/><use transform="matrix(0.05,0,0,0.05,8.950000000000001,0)" xlink:href="#cu"/><use transform="matrix(0.05,0,0,0.05,18.950000000000003,0)" xlink:href="#cB"/><use transform="matrix(0.05,0,0,0.05,27.950000000000003,0)" xlink:href="#ch"/><use transform="matrix(0.05,0,0,0.05,37.95,0)" xlink:href="#co"/></g><path d="M30 0v-248h33v221h125V0H30" id="cJ"/><g id="aI"><use transform="matrix(0.05,0,0,0.05,0,0)" xlink:href="#cq"/><use transform="matrix(0.05,0,0,0.05,5.95,0)" xlink:href="#cJ"/><use transform="matrix(0.05,0,0,0.05,15.949999999999998,0)" xlink:href="#cg"/></g><g id="aJ"><use transform="matrix(0.05,0,0,0.05,0,0)" xlink:href="#cj"/><use transform="matrix(0.05,0,0,0.05,5.95,0)" xlink:href="#ch"/><use transform="matrix(0.05,0,0,0.05,15.949999999999998,0)" xlink:href="#cG"/><use transform="matrix(0.05,0,0,0.05,25.950000000000003,0)" xlink:href="#ci"/><use transform="matrix(0.05,0,0,0.05,35.95,0)" xlink:href="#cH"/><use transform="matrix(0.05,0,0,0.05,45.95,0)" xlink:href="#cc"/><use transform="matrix(0.05,0,0,0.05,50.95,0)" xlink:href="#ch"/></g><g id="aK"><use transform="matrix(0.05,0,0,0.05,0,0)" xlink:href="#ch"/><use transform="matrix(0.05,0,0,0.05,10,0)" xlink:href="#cf"/><use transform="matrix(0.05,0,0,0.05,19,0)" xlink:href="#cc"/></g><g id="aL"><use transform="matrix(0.05,0,0,0.05,0,0)" xlink:href="#cf"/><use transform="matrix(0.05,0,0,0.05,9,0)" xlink:href="#cs"/><use transform="matrix(0.05,0,0,0.05,19,0)" xlink:href="#ct"/><use transform="matrix(0.05,0,0,0.05,28,0)" xlink:href="#ci"/><use transform="matrix(0.05,0,0,0.05,38,0)" xlink:href="#cj"/><use transform="matrix(0.05,0,0,0.05,43.95,0)" xlink:href="#cd"/><use transform="matrix(0.05,0,0,0.05,47.900000000000006,0)" xlink:href="#cf"/><use transform="matrix(0.05,0,0,0.05,56.900000000000006,0)" xlink:href="#cs"/><use transform="matrix(0.05,0,0,0.05,66.9,0)" xlink:href="#ch"/><use transform="matrix(0.05,0,0,0.05,76.9,0)" xlink:href="#cz"/></g><path d="M47-170H22l-4-78h33" id="cK"/><g id="aM"><use transform="matrix(0.05,0,0,0.05,0,0)" xlink:href="#cJ"/><use transform="matrix(0.05,0,0,0.05,10,0)" xlink:href="#ch"/><use transform="matrix(0.05,0,0,0.05,20,0)" xlink:href="#cc"/><use transform="matrix(0.05,0,0,0.05,25,0)" xlink:href="#cK"/><use transform="matrix(0.05,0,0,0.05,28.399999999999995,0)" xlink:href="#cf"/></g><path d="M179-190L93 31C79 59 56 82 12 73V49c39 6 53-20 64-50L1-190h34L92-34l54-156h33" id="cL"/><g id="aN"><use transform="matrix(0.05,0,0,0.05,0,0)" xlink:href="#cD"/><use transform="matrix(0.05,0,0,0.05,12,0)" xlink:href="#co"/><use transform="matrix(0.05,0,0,0.05,22,0)" xlink:href="#ct"/><use transform="matrix(0.05,0,0,0.05,31,0)" xlink:href="#cj"/><use transform="matrix(0.05,0,0,0.05,36.95,0)" xlink:href="#cL"/><use transform="matrix(0.05,0,0,0.05,45.95,0)" xlink:href="#cw"/><use transform="matrix(0.05,0,0,0.05,55.95,0)" xlink:href="#cc"/></g><path d="M30-248c118-7 216 8 213 122C240-48 200 0 122 0H30v-248zM63-27c89 8 146-16 146-99s-60-101-146-95v194" id="cM"/><path d="M210-169c-67 3-38 105-44 169h-31v-121c0-29-5-50-35-48C34-165 62-65 56 0H25l-1-190h30c1 10-1 24 2 32 10-44 99-50 107 0 11-21 27-35 58-36 85-2 47 119 55 194h-31v-121c0-29-5-49-35-48" id="cN"/><g id="aP"><use transform="matrix(0.05,0,0,0.05,0,0)" xlink:href="#cM"/><use transform="matrix(0.05,0,0,0.05,12.950000000000001,0)" xlink:href="#ch"/><use transform="matrix(0.05,0,0,0.05,22.950000000000003,0)" xlink:href="#cN"/><use transform="matrix(0.05,0,0,0.05,37.900000000000006,0)" xlink:href="#cg"/><use transform="matrix(0.05,0,0,0.05,47.900000000000006,0)" xlink:href="#co"/><use transform="matrix(0.05,0,0,0.05,57.900000000000006,0)" xlink:href="#cn"/><use transform="matrix(0.05,0,0,0.05,67.9,0)" xlink:href="#ch"/></g><g id="aQ"><use transform="matrix(0.05,0,0,0.05,0,0)" xlink:href="#ct"/><use transform="matrix(0.05,0,0,0.05,9,0)" xlink:href="#ch"/><use transform="matrix(0.05,0,0,0.05,19,0)" xlink:href="#cj"/><use transform="matrix(0.05,0,0,0.05,24.95,0)" xlink:href="#cc"/><use transform="matrix(0.05,0,0,0.05,29.950000000000003,0)" xlink:href="#cd"/><use transform="matrix(0.05,0,0,0.05,33.9,0)" xlink:href="#cp"/><use transform="matrix(0.05,0,0,0.05,38.9,0)" xlink:href="#cd"/><use transform="matrix(0.05,0,0,0.05,42.85,0)" xlink:href="#ct"/><use transform="matrix(0.05,0,0,0.05,51.85,0)" xlink:href="#cg"/><use transform="matrix(0.05,0,0,0.05,61.85,0)" xlink:href="#cc"/></g><g id="aR"><use transform="matrix(0.05,0,0,0.05,0,0)" xlink:href="#cM"/><use transform="matrix(0.05,0,0,0.05,12.950000000000001,0)" xlink:href="#cs"/><use transform="matrix(0.05,0,0,0.05,22.950000000000003,0)" xlink:href="#cp"/><use transform="matrix(0.05,0,0,0.05,27.950000000000003,0)" xlink:href="#cd"/><use transform="matrix(0.05,0,0,0.05,31.900000000000002,0)" xlink:href="#cf"/></g><g id="aS"><use transform="matrix(0.05,0,0,0.05,0,0)" xlink:href="#cl"/><use transform="matrix(0.05,0,0,0.05,9,0)" xlink:href="#cg"/><use transform="matrix(0.05,0,0,0.05,19,0)" xlink:href="#ce"/><use transform="matrix(0.05,0,0,0.05,22.95,0)" xlink:href="#cd"/><use transform="matrix(0.05,0,0,0.05,26.899999999999995,0)" xlink:href="#cn"/><use transform="matrix(0.05,0,0,0.05,36.9,0)" xlink:href="#cg"/><use transform="matrix(0.05,0,0,0.05,46.9,0)" xlink:href="#cc"/><use transform="matrix(0.05,0,0,0.05,51.900000000000006,0)" xlink:href="#cd"/><use transform="matrix(0.05,0,0,0.05,55.85,0)" xlink:href="#cu"/><use transform="matrix(0.05,0,0,0.05,65.85,0)" xlink:href="#co"/></g><g id="aT"><use transform="matrix(0.05,0,0,0.05,0,0)" xlink:href="#cF"/><use transform="matrix(0.05,0,0,0.05,12.950000000000001,0)" xlink:href="#cs"/><use transform="matrix(0.05,0,0,0.05,22.950000000000003,0)" xlink:href="#cw"/><use transform="matrix(0.05,0,0,0.05,32.95,0)" xlink:href="#cu"/><use transform="matrix(0.05,0,0,0.05,42.95,0)" xlink:href="#co"/><use transform="matrix(0.05,0,0,0.05,52.95,0)" xlink:href="#cf"/><use transform="matrix(0.05,0,0,0.05,61.95,0)" xlink:href="#ch"/></g><path d="M141 0L90-78 38 0H4l68-98-65-92h35l48 74 47-74h35l-64 92 68 98h-35" id="cO"/><g id="aU"><use transform="matrix(0.05,0,0,0.05,0,0)" xlink:href="#cg"/><use transform="matrix(0.05,0,0,0.05,10,0)" xlink:href="#ci"/><use transform="matrix(0.05,0,0,0.05,20,0)" xlink:href="#cO"/></g><g id="aV"><use transform="matrix(0.05,0,0,0.05,0,0)" xlink:href="#cn"/><use transform="matrix(0.05,0,0,0.05,10,0)" xlink:href="#cs"/><use transform="matrix(0.05,0,0,0.05,20,0)" xlink:href="#cp"/><use transform="matrix(0.05,0,0,0.05,25,0)" xlink:href="#cd"/><use transform="matrix(0.05,0,0,0.05,28.950000000000003,0)" xlink:href="#cf"/></g><path d="M212-179c-10-28-35-45-73-45-59 0-87 40-87 99 0 60 29 101 89 101 43 0 62-24 78-52l27 14C228-24 195 4 139 4 59 4 22-46 18-125c-6-104 99-153 187-111 19 9 31 26 39 46" id="cP"/><g id="aW"><use transform="matrix(0.05,0,0,0.05,0,0)" xlink:href="#cP"/><use transform="matrix(0.05,0,0,0.05,12.950000000000001,0)" xlink:href="#ch"/><use transform="matrix(0.05,0,0,0.05,22.950000000000003,0)" xlink:href="#cj"/><use transform="matrix(0.05,0,0,0.05,28.900000000000002,0)" xlink:href="#cc"/><use transform="matrix(0.05,0,0,0.05,33.900000000000006,0)" xlink:href="#cd"/><use transform="matrix(0.05,0,0,0.05,37.85000000000001,0)" xlink:href="#cp"/><use transform="matrix(0.05,0,0,0.05,42.85000000000001,0)" xlink:href="#cd"/><use transform="matrix(0.05,0,0,0.05,46.80000000000001,0)" xlink:href="#ct"/><use transform="matrix(0.05,0,0,0.05,55.80000000000001,0)" xlink:href="#cg"/><use transform="matrix(0.05,0,0,0.05,65.80000000000001,0)" xlink:href="#cc"/></g><g id="aX"><use transform="matrix(0.05,0,0,0.05,0,0)" xlink:href="#cm"/><use transform="matrix(0.05,0,0,0.05,5,0)" xlink:href="#co"/><use transform="matrix(0.05,0,0,0.05,15,0)" xlink:href="#cf"/><use transform="matrix(0.05,0,0,0.05,24,0)" xlink:href="#cc"/><use transform="matrix(0.05,0,0,0.05,29,0)" xlink:href="#cg"/><use transform="matrix(0.05,0,0,0.05,39,0)" xlink:href="#ce"/><use transform="matrix(0.05,0,0,0.05,42.95,0)" xlink:href="#ce"/><use transform="matrix(0.05,0,0,0.05,46.900000000000006,0)" xlink:href="#cg"/><use transform="matrix(0.05,0,0,0.05,56.900000000000006,0)" xlink:href="#cc"/><use transform="matrix(0.05,0,0,0.05,61.900000000000006,0)" xlink:href="#cd"/><use transform="matrix(0.05,0,0,0.05,65.85000000000001,0)" xlink:href="#cu"/><use transform="matrix(0.05,0,0,0.05,75.85000000000001,0)" xlink:href="#co"/></g></defs></g></svg>